<svg width="600" height="400" viewBox="0 0 600 400" fill="none" xmlns="http://www.w3.org/2000/svg">
<rect width="600" height="400" fill="white"/>
<path d="M469.702 329.765L474.924 338.588L473.634 339.353L474.904 341.5H472.603V343H462.74V341.5H452.878V343H443.015V341.5H433.151V343H423.288V341.5H413.426V343H403.562V341.5H393.699V343H383.836V341.5H373.973V343H364.11V341.5H354.247V343H344.384V341.5H334.52V343H324.658V341.5H314.795V343H304.932V341.5H295.068V343H285.205V341.5H275.343V343H265.479V341.5H255.616V343H245.753V341.5H235.89V343H226.027V341.5H216.164V343H206.301V341.5H196.437V343H186.575V341.5H176.712V343H166.849V341.5H156.985V343H147.122V341.5H137.26V343H127.396V341.5H125.096L126.366 339.353L125.075 338.588L130.297 329.765L131.588 330.528L136.81 321.705L135.519 320.941L140.74 312.117L142.031 312.882L147.253 304.058L145.962 303.294L151.184 294.471L152.475 295.234L157.696 286.411L156.405 285.647L156.404 285.646L161.627 276.823L162.918 277.588L168.14 268.764L166.849 268L172.069 259.176L172.07 259.177L173.361 259.94L178.583 251.117L177.292 250.353L182.513 241.528L182.514 241.529L183.805 242.293L189.026 233.47L187.735 232.706L187.734 232.705L192.956 223.882L192.957 223.883L194.248 224.646L199.47 215.823L198.179 215.059L198.178 215.058L203.399 206.234L203.4 206.235L204.69 206.999L209.912 198.176L208.622 197.412L208.621 197.411L213.843 188.588L215.134 189.353L220.355 180.528L219.064 179.765L224.286 170.941L225.577 171.705L230.799 162.882L229.508 162.117L234.729 153.294L236.02 154.058L241.242 145.234L239.951 144.471L245.172 135.646L245.173 135.647L246.464 136.411L251.686 127.588L250.394 126.823L255.616 118L256.907 118.764L262.129 109.94L260.838 109.177L260.837 109.176L266.06 100.353L267.351 101.117L272.572 92.293L271.281 91.5293L271.28 91.5283L276.502 82.7051L276.503 82.7061L277.794 83.4697L283.016 74.6465L281.725 73.8828L281.724 73.8818L286.945 65.0576L286.946 65.0586L288.237 65.8232L293.459 56.999L292.168 56.2354L292.167 56.2344L297.389 47.4111L297.39 47.4121L298.68 48.1758L300 45.9443L301.32 48.1758L302.61 47.4121V47.4111L307.832 56.2344V56.2354L306.542 56.999L311.764 65.8223L313.054 65.0586V65.0576L318.275 73.8818V73.8828L316.984 74.6465L322.206 83.4697L323.497 82.7061V82.7051L328.719 91.5283V91.5293L327.428 92.293L332.649 101.117L333.939 100.353L339.162 109.176V109.177L337.871 109.94L343.093 118.764L344.384 118L349.604 126.823H349.605L348.314 127.588L353.536 136.411L354.827 135.647V135.646L360.048 144.471H360.049L358.758 145.234L363.979 154.058L365.269 153.294L370.491 162.117L369.201 162.882L374.423 171.705L375.713 170.941L380.935 179.765H380.936L379.644 180.528L384.866 189.353L386.156 188.588L391.378 197.412H391.379L390.088 198.176L395.31 206.999L396.6 206.235V206.234L401.821 215.058V215.059L400.531 215.822L405.753 224.646L407.043 223.883V223.882L412.265 232.705V232.706L410.974 233.47L416.195 242.293L417.486 241.529V241.528L422.707 250.353H422.708L421.417 251.117L426.639 259.94L427.93 259.177V259.176L433.151 268L431.86 268.764L437.082 277.588L438.372 276.823L443.595 285.646V285.647L442.304 286.411L447.525 295.234L448.815 294.471L454.037 303.294H454.038L452.747 304.058L457.969 312.882L459.259 312.117L464.48 320.941H464.481L463.19 321.705L468.412 330.528L469.702 329.765Z" stroke="#BABABA" stroke-width="3" stroke-dasharray="10 10"/>
</svg>
