<svg width="600" height="400" viewBox="0 0 600 400" fill="none" xmlns="http://www.w3.org/2000/svg">
<rect width="600" height="400" fill="white"/>
<path d="M314.501 117.692L309.5 109.231V109.23L310.791 108.468L309.628 106.5H312V105L322 105V106.5H332V105H342V106.5H352V105H362V106.5H372V105H382V106.5L392 106.5V105H402V106.5H412V105H422V106.5H432V105H442V106.5H452V105L462 105V106.5H472V105H482V106.5H492V105H502V106.5H512V105H522V106.5L532 106.5V105H542V106.5H552V105H562V106.5H564.372L563.209 108.468L564.5 109.23L564.501 109.231L559.5 117.692L558.209 116.929L553.209 125.391L554.5 126.154L549.501 134.616L549.5 134.615L548.209 133.853L543.209 142.313L544.5 143.077L539.501 151.539L539.5 151.538L538.209 150.775L533.209 159.237L534.5 160L529.5 168.462L528.209 167.698L523.209 176.16L524.5 176.923L524.501 176.924L519.5 185.385L518.209 184.621L513.209 193.083L514.5 193.846L514.501 193.847L509.501 202.309L509.5 202.308L508.209 201.545L503.209 210.006L504.5 210.77L499.501 219.231L499.5 219.23L498.209 218.468L493.209 226.93L494.5 227.692L489.5 236.154L488.209 235.391L483.209 243.853L484.5 244.615L484.501 244.616L479.5 253.077L478.209 252.313L473.209 260.775L474.5 261.538L474.501 261.539L469.5 270L468.209 269.237L463.209 277.698L464.5 278.462L459.501 286.924L459.5 286.923L458.209 286.16L453.209 294.621L454.5 295.385L449.501 303.847L449.5 303.846L448.209 303.083L443.209 311.545L444.5 312.308L444.501 312.309L439.5 320.77L438.209 320.006L437 322.053L435.791 320.006L434.501 320.77L429.5 312.309V312.308L430.791 311.545L425.791 303.083L424.5 303.846V303.847L419.501 295.385H419.5L420.791 294.621L415.791 286.16L414.5 286.923V286.924L409.501 278.462H409.5L410.791 277.698L405.791 269.237L404.5 270L399.5 261.539V261.538L400.791 260.775L395.791 252.313L394.501 253.077L389.5 244.616V244.615L390.791 243.853L385.791 235.391L384.501 236.154L379.501 227.692H379.5L380.791 226.929L375.791 218.468L374.5 219.23V219.231L369.501 210.77H369.5L370.791 210.006L365.791 201.545L364.5 202.308V202.309L359.5 193.847V193.846L360.791 193.083L355.791 184.621L354.501 185.385L349.5 176.924V176.923L350.791 176.16L345.791 167.698L344.501 168.462L339.5 160L340.791 159.237L335.791 150.775L334.5 151.538V151.539L329.501 143.077H329.5L330.791 142.313L325.791 133.853L324.5 134.615V134.616L319.501 126.154H319.5L320.791 125.391L315.791 116.93L314.501 117.692Z" stroke="#BABABA" stroke-width="3" stroke-dasharray="10 10"/>
<path d="M248.796 137.666L257.016 143.634V143.635L256.134 144.849L264.353 150.816L265.234 149.603V149.602L273.453 155.57V155.571L272.571 156.785L280.79 162.753L281.672 161.539V161.538L289.891 167.507V167.508L289.009 168.721L292.235 171.064L291.004 174.856L292.43 175.319L289.291 184.977L287.864 184.513L284.726 194.17L286.151 194.634L283.012 204.289L281.586 203.826L278.446 213.483L279.873 213.947L276.733 223.603L275.308 223.14L272.168 232.797L273.594 233.26L270.455 242.917L269.029 242.454L265.89 252.11L267.315 252.573L264.177 262.23L262.75 261.768L259.611 271.424L261.037 271.888L257.897 281.544L256.472 281.081L253.332 290.737L254.759 291.201L251.619 300.857L250.193 300.395L247.054 310.051L248.479 310.514L245.341 320.172L243.915 319.708L242.682 323.5H238.692V325H228.533V323.5H218.374V325H208.215V323.5H198.057V325H187.897V323.5H177.738V325H167.579V323.5H157.421V325H147.262V323.5H137.103V325H126.943V323.5H116.785V325H106.626V323.5H96.4668V325H86.3076V323.5H82.3184L81.085 319.708L79.6582 320.172L76.5195 310.514L77.9463 310.051L74.8066 300.395L73.3799 300.857L70.2402 291.201L71.668 290.737L68.5283 281.081L67.1016 281.544L63.9619 271.888L65.3887 271.424L62.25 261.768L60.8223 262.23L57.6836 252.573L59.1104 252.11L55.9707 242.454L54.5439 242.917L51.4053 233.26L52.832 232.797L49.6924 223.14L48.2656 223.603L45.126 213.947L46.5537 213.483L43.4141 203.826L41.9873 204.289L38.8477 194.634L40.2744 194.17L37.1357 184.513L35.708 184.977L32.5693 175.319L33.9961 174.856L32.7637 171.064L35.9912 168.721L35.1094 167.508L35.1084 167.507L43.3271 161.538L43.3281 161.539L44.21 162.753L52.4287 156.785L51.5469 155.571L51.5459 155.57L59.7646 149.602L59.7656 149.603L60.6475 150.816L68.8662 144.849L67.9844 143.635L67.9834 143.634L76.2031 137.666L77.085 138.88L85.3037 132.912L84.4219 131.698L84.4209 131.697L92.6406 125.729L93.5225 126.943L101.741 120.976L100.859 119.762L100.858 119.761L109.078 113.793L109.96 115.007L118.179 109.039L117.297 107.825L117.296 107.824L125.515 101.856L125.516 101.857L126.397 103.07L134.616 97.1025L133.734 95.8887L141.952 89.9199L141.953 89.9209L142.835 91.1348L151.054 85.166L150.172 83.9521L158.39 77.9834L158.391 77.9844L159.272 79.1982L162.5 76.8535L165.728 79.1982L166.609 77.9844V77.9834L174.827 83.9521H174.828L173.946 85.166L182.165 91.1348L183.047 89.9209V89.9199L191.265 95.8887H191.266L190.384 97.1025L198.603 103.07L199.484 101.857V101.856L207.703 107.824V107.825L206.821 109.039L215.04 115.007L215.921 113.793L224.141 119.761V119.762L223.259 120.976L231.478 126.943L232.358 125.729L240.578 131.697V131.698L239.696 132.912L247.915 138.88L248.796 137.666Z" stroke="#BABABA" stroke-width="3" stroke-dasharray="10 10"/>
</svg>
