<svg width="600" height="400" viewBox="0 0 600 400" fill="none" xmlns="http://www.w3.org/2000/svg">
<rect width="600" height="400" fill="white"/>
<rect x="236.5" y="116.5" width="127" height="262" stroke="#BABABA" stroke-width="3" stroke-dasharray="10 10"/>
<path d="M324.524 75.25L328.375 83.75L327.009 84.3691L330.858 92.8691L332.225 92.25V92.249L336.074 100.75H336.075L334.709 101.369L335.674 103.5H333.188V105H323.562V103.5H313.938V105H304.312V103.5H294.688V105H285.062V103.5H275.438V105H265.812V103.5H263.326L264.291 101.369L262.925 100.75L266.774 92.249L266.775 92.25L268.142 92.8691L271.991 84.3691L270.625 83.75L274.475 75.25L275.842 75.8691L279.691 67.3691L278.325 66.75L278.324 66.749L282.175 58.25L283.541 58.8691L287.392 50.3691L286.025 49.75L286.024 49.749L289.875 41.25L291.241 41.8691L295.092 33.3691L293.725 32.75L297.574 24.249L297.575 24.25L298.941 24.8691L299.5 23.6357L300.059 24.8691L301.425 24.25V24.249L305.274 32.75H305.275L303.908 33.3691L307.759 41.8691L309.125 41.25L312.975 49.749V49.75L311.608 50.3691L315.459 58.8691L316.824 58.25L320.675 66.749V66.75L319.309 67.3691L323.158 75.8691L324.524 75.25Z" fill="#FFEA00" fill-opacity="0.2" stroke="#BABABA" stroke-width="3" stroke-dasharray="10 10"/>
</svg>
