<svg width="600" height="400" viewBox="0 0 600 400" fill="none" xmlns="http://www.w3.org/2000/svg">
<rect width="600" height="400" fill="white"/>
<path d="M425.131 172.832L423.569 376.5L221.463 174.393L425.131 172.832Z" fill="#FF0000" fill-opacity="0.2"/>
<path d="M176.134 338.668L177.696 135L379.802 337.107L176.134 338.668Z" fill="#77FF00" fill-opacity="0.2"/>
<path d="M81.5 103.907L174.571 11.9997V195.814L81.5 103.907Z" fill="#FF7B00" fill-opacity="0.2"/>
<path d="M511 88L429 6.99999V169L511 88Z" fill="#00D0FF" fill-opacity="0.2"/>
<path d="M426.25 170.492L362 170L425.758 106.242L426.25 170.492Z" fill="#FF0088" fill-opacity="0.2"/>
<path d="M175.893 341L216 341.272L176.2 376.5L175.893 341Z" fill="#4400FF" fill-opacity="0.2"/>
<path d="M263 70.9997H362V170H263V70.9997Z" fill="#D643E1" fill-opacity="0.2"/>
<path d="M190.932 341.102L190.923 342.602L200.949 342.67L200.96 341.17V341.169L210.986 341.237V341.238L210.977 342.738L212.071 342.745L211.689 343.084L212.683 344.207L206.049 350.078L205.056 348.956L198.423 354.827L199.416 355.949L192.783 361.821L191.789 360.698L185.156 366.569L186.15 367.692L179.517 373.564L178.522 372.44L177.672 373.193L177.662 372.049L176.161 372.062L176.084 363.188L177.585 363.174L177.508 354.299L176.008 354.312L175.931 345.437L177.431 345.424L177.405 342.51L180.896 342.534L180.906 341.034V341.033L190.932 341.102ZM420.039 172.871L420.051 174.37L423.619 174.343L423.592 177.912L425.092 177.923L425.014 188.106L423.514 188.095L423.436 198.278L424.936 198.29L424.857 208.474L423.357 208.462L423.279 218.646L424.779 218.657L424.701 228.841L423.201 228.829L423.123 239.013L424.623 239.023L424.545 249.207L423.045 249.195L422.967 259.379L424.467 259.391L424.389 269.574L422.89 269.562L422.812 279.746L424.311 279.757L424.232 289.939L422.733 289.93L422.655 300.112L424.154 300.123L424.076 310.307L422.577 310.296L422.499 320.479L423.998 320.49L423.92 330.674L422.421 330.663L422.343 340.847L423.842 340.856L423.764 351.04L422.265 351.029L422.187 361.213L423.686 361.224L423.607 371.407L422.108 371.396L422.097 372.905L421.021 371.83L419.96 372.89L412.742 365.672L413.803 364.612L406.585 357.394L405.524 358.454H405.523L398.306 351.235L399.367 350.176L392.148 342.958L391.088 344.018L383.869 336.8H383.87L384.931 335.739L377.713 328.521L376.651 329.581L369.434 322.363L370.494 321.304L363.276 314.085L362.216 315.146H362.215L354.997 307.927L356.059 306.867L348.84 299.649L347.779 300.709L340.561 293.491H340.562L341.622 292.431L334.404 285.213L333.343 286.272L326.125 279.055L327.186 277.995L319.968 270.776L318.906 271.837L311.688 264.618L312.75 263.559L305.531 256.341L304.471 257.4L297.252 250.183L298.313 249.122L291.096 241.904L290.034 242.964L282.816 235.746L283.877 234.687L276.659 227.468L275.598 228.528L268.38 221.31L269.441 220.25L262.223 213.032L261.162 214.092L253.943 206.874L255.005 205.813L247.787 198.596L246.726 199.655L239.508 192.438L240.568 191.378L233.351 184.159L232.289 185.22L225.071 178.002L226.133 176.941L225.056 175.864L226.566 175.854L226.555 174.354L236.737 174.275L236.738 174.276L236.749 175.775L246.933 175.698L246.921 174.198L246.92 174.197L257.104 174.119L257.104 174.12L257.116 175.62L267.3 175.542L267.288 174.042L267.287 174.041L277.471 173.963L277.472 173.964L277.483 175.464L287.666 175.386L287.655 173.886L287.654 173.885L297.837 173.807L297.838 173.808L297.85 175.308L308.033 175.229L308.021 173.729L308.021 173.729L318.204 173.65L318.205 173.651L318.217 175.151L328.4 175.073L328.389 173.573L338.572 173.495L338.583 174.995L348.767 174.917L348.755 173.417L358.938 173.339L358.95 174.839L369.134 174.761L369.122 173.261L379.306 173.183L379.317 174.683L389.5 174.604L389.489 173.104L399.672 173.026L399.684 174.526L409.867 174.448L409.855 172.948L420.038 172.87L420.039 172.871ZM368.975 326.279L376.193 333.497L375.133 334.559L376.208 335.634L374.699 335.646L374.71 337.145L364.526 337.223L364.516 335.724L354.332 335.802L354.343 337.301L344.159 337.379L344.149 335.88L333.966 335.958L333.977 337.457L323.793 337.535L323.782 336.036L313.599 336.114L313.609 337.613L303.426 337.691L303.415 336.192L293.232 336.271L293.242 337.77L283.06 337.848L283.049 336.349L272.865 336.427L272.876 337.926L262.692 338.004L262.682 336.505L252.498 336.583L252.509 338.082L242.325 338.16L242.315 336.661L232.132 336.739L232.143 338.238L221.96 338.316L221.948 336.817L211.765 336.895L211.776 338.395L201.593 338.473L201.581 336.973L191.398 337.051L191.409 338.551L181.227 338.629L181.215 337.129L177.646 337.156L177.674 333.588L176.174 333.576L176.173 333.575L176.251 323.393L177.751 323.404L177.829 313.221L176.329 313.21L176.407 303.026L177.907 303.038L177.985 292.854L176.485 292.843L176.563 282.659L178.063 282.671L178.142 272.487L176.642 272.476L176.72 262.293L178.22 262.304L178.298 252.121L176.798 252.109L176.876 241.926L178.376 241.938L178.454 231.754L176.954 231.742L176.953 231.741L177.031 221.558L177.032 221.559L178.532 221.57L178.61 211.387L177.109 211.375L177.188 201.191L178.688 201.204L178.767 191.021L177.266 191.008L177.344 180.824L177.345 180.825L178.845 180.837L178.923 170.653L177.423 170.642L177.422 170.641L177.5 160.458L179.001 160.47L179.078 150.287L177.578 150.274L177.656 140.092L179.156 140.104L179.167 138.593L180.244 139.67L181.305 138.608L188.522 145.826V145.827L187.462 146.888L194.681 154.105L195.74 153.045L202.959 160.263L201.898 161.324L209.116 168.542L210.177 167.481V167.48L217.395 174.699L216.335 175.76L223.553 182.979L224.613 181.917L231.831 189.135V189.136L230.771 190.196L237.989 197.414L239.049 196.354L246.268 203.571L245.207 204.633L252.425 211.851L253.485 210.79V210.789L260.703 218.008L259.644 219.068L266.861 226.287L267.922 225.226L275.14 232.443V232.444L274.079 233.505L281.298 240.723L282.357 239.662L289.576 246.88L288.516 247.941L295.733 255.159L296.794 254.099V254.098L304.012 261.316L302.952 262.377L310.17 269.596L311.23 268.534L318.448 275.752V275.753L317.388 276.813L324.606 284.031L325.666 282.971L332.885 290.188L331.824 291.25L339.042 298.468L340.103 297.406L347.32 304.625L346.261 305.686L353.479 312.904L354.539 311.843L361.757 319.061V319.062L360.696 320.122L367.915 327.34L368.975 326.279ZM171.246 15.2812L172.301 16.3496L173.07 15.5889V17.1055H174.57V27.3174H173.07V37.5293H174.57V47.7412H173.07V57.9531H174.57V68.165H173.07V78.377H174.57V88.5889H173.07V98.8008H174.57V109.013H173.07V119.225H174.57V129.437H173.07V139.648H174.57V149.86H173.07V160.072H174.57V170.284H173.07V180.496H174.57V190.708H173.07V192.224L172.301 191.464L171.246 192.531H171.245L164.598 185.967H164.599L165.652 184.899L159.005 178.335L157.951 179.402H157.95L151.302 172.837H151.303L152.356 171.77L145.709 165.205L144.654 166.272L138.007 159.707L139.062 158.641L132.413 152.075L131.358 153.143L124.71 146.578L125.766 145.511L119.117 138.946L118.062 140.014L111.414 133.448L112.47 132.381L105.821 125.816L104.767 126.884L98.1191 120.319L99.1738 119.252L92.5254 112.687L91.4707 113.754L84.8232 107.189L85.8779 106.122L83.6338 103.906L85.8779 101.691L84.8232 100.624L91.4717 94.0596L92.5254 95.127L99.1738 88.5625L98.1191 87.4941L104.768 80.9297L105.821 81.9971L112.47 75.4326L111.415 74.3652L118.062 67.7998L119.117 68.8682L125.766 62.3027L124.711 61.2354L131.359 54.6709L132.413 55.7383L139.062 49.1738L138.007 48.1064L144.655 41.541L145.709 42.6084L152.356 36.0439L151.303 34.9766L157.95 28.4111L159.005 29.4795L165.652 22.9141L164.599 21.8467L171.246 15.2812ZM425.962 133.013L426.045 143.721L424.545 143.732L424.627 154.441L426.127 154.43L426.208 165.138H426.209L424.709 165.149L424.738 168.98L420.907 168.951L420.896 170.451L410.188 170.369L410.199 168.869L399.491 168.787L399.479 170.287L388.771 170.205H388.771L388.782 168.705L378.074 168.623L378.062 170.123L367.354 170.041L367.366 168.541L365.593 168.527L366.249 167.872L365.188 166.812L371.563 160.437L372.624 161.497L379 155.121L377.939 154.061L384.315 147.685L385.376 148.745L391.752 142.369L390.691 141.309L397.066 134.933L398.128 135.994L404.503 129.618L403.442 128.558L409.818 122.182L410.879 123.242L417.255 116.866L416.194 115.806L422.57 109.43L423.631 110.49L424.285 109.835L424.299 111.607L425.799 111.596L425.881 122.305L424.381 122.316L424.463 133.024L425.962 133.013ZM357.05 71V72.5H360.5V75.9502H362V85.8496H360.5V95.75H362V105.649H360.5V115.55H362V125.45H360.5V135.35H362V145.25H360.5V155.149H362V165.05H360.5V168.5H357.05V170H347.15V168.5H337.25V170H327.35V168.5H317.45V170H307.55V168.5H297.65V170H287.75V168.5H277.85V170H267.95V168.5H264.5V165.05H263V155.149H264.5V145.25H263V135.35H264.5V125.45H263V115.55H264.5V105.649H263V95.75H264.5V85.8496H263V75.9502H264.5V72.5H267.95V71H277.85V72.5H287.75V71H297.65V72.5H307.55V71H317.45V72.5H327.35V71H337.25V72.5H347.15V71H357.05ZM432.416 10.375L439.25 17.125L438.196 18.1924L445.029 24.9424L446.083 23.875V23.874L452.916 30.625H452.917L451.862 31.6924L458.696 38.4424L459.75 37.375L466.583 44.124V44.125L465.529 45.1924L472.362 51.9424L473.416 50.875L480.25 57.625L479.196 58.6924L486.029 65.4424L487.083 64.375V64.374L493.916 71.125H493.917L492.862 72.1924L499.696 78.9424L500.75 77.875L507.583 84.624V84.625L506.529 85.6924L508.865 88L506.529 90.3076L507.583 91.375L500.75 98.125L499.696 97.0576L492.862 103.808L493.916 104.874L487.083 111.625L486.029 110.558L479.196 117.308L480.25 118.375L473.416 125.124L472.362 124.058L465.529 130.808L466.583 131.875L459.75 138.625L458.696 137.558L451.862 144.308L452.916 145.374L446.083 152.125L445.029 151.058L438.196 157.808L439.25 158.875L432.416 165.624L431.362 164.558L430.5 165.409V163.938H429V153.812H430.5V143.688H429V133.562H430.5V123.438H429V113.312H430.5V103.188H429V93.0625H430.5V82.9375H429V72.8125H430.5V62.6875H429V52.5625H430.5V42.4375H429V32.3125H430.5V22.1875H429V12.0625H430.5V10.5898L431.362 11.4424L432.416 10.375Z" stroke="#BABABA" stroke-width="3" stroke-dasharray="10 10"/>
</svg>
