<svg width="600" height="400" viewBox="0 0 600 400" fill="none" xmlns="http://www.w3.org/2000/svg">
<rect width="600" height="400" fill="white"/>
<rect x="194.736" y="210.98" width="205.055" height="205.055" transform="rotate(-45 194.736 210.98)" fill="#FF0000" fill-opacity="0.2" stroke="#BABABA" stroke-width="3" stroke-dasharray="10 10"/>
<rect x="30.1213" y="105.667" width="88.4526" height="88.4526" transform="rotate(-45 30.1213 105.667)" fill="#2B00FF" fill-opacity="0.2" stroke="#BABABA" stroke-width="3" stroke-dasharray="10 10"/>
<path d="M546.993 149.934L553.852 142.979H553.853L552.785 141.926L559.644 134.972L560.711 136.025V136.026L567.57 129.071H567.571L566.502 128.018L567.414 127.094H565.856V125.594H555.567V127.094H545.279V125.594H534.991V127.094H524.702V125.594H514.414V127.094H504.125V125.594H493.836V127.094H483.548V125.594L473.26 125.594V127.094H462.971V125.594H452.683V127.094H442.395V125.594H432.106V127.094H421.818V125.594H411.53V127.094H409.971L410.882 128.018L409.815 129.071L409.814 129.072L416.672 136.026L416.673 136.025L417.742 134.972L424.6 141.926L423.533 142.979L423.532 142.98L430.391 149.934L431.459 148.88L438.319 155.834L437.25 156.888L444.109 163.843L444.11 163.842L445.177 162.788L452.037 169.742L450.968 170.796L457.827 177.751L457.828 177.75L458.895 176.697L465.754 183.652L464.686 184.704L471.544 191.659L471.545 191.658L472.613 190.606L479.472 197.56L478.404 198.613L485.262 205.568L485.263 205.567L486.332 204.514L488.692 206.908L491.054 204.514L492.123 205.567V205.568L498.981 198.614V198.613L497.913 197.56L504.772 190.606L505.84 191.658V191.659L512.699 184.705V184.704L511.631 183.652L518.49 176.697L519.557 177.75L526.417 170.797V170.796L525.349 169.742L532.208 162.788L533.275 163.842L540.134 156.889V156.888L539.067 155.834L545.925 148.88L546.993 149.934Z" fill="#D643E1" fill-opacity="0.2" stroke="#BABABA" stroke-width="3" stroke-dasharray="10 10"/>
<path d="M188.479 217.077L187.41 216.025V216.024L180.428 223.129V223.13L181.498 224.181L174.516 231.285L173.447 230.233V230.232L166.466 237.337H166.465L167.535 238.389L160.553 245.492L159.484 244.441V244.44L152.503 251.545H152.502L153.572 252.597L146.59 259.7L145.521 258.649V258.648L138.541 265.753H138.54L139.609 266.805L132.627 273.908L131.559 272.856L124.578 279.961H124.577L125.646 281.012L118.665 288.116L117.596 287.064L110.615 294.169H110.614L111.683 295.22L104.703 302.324L103.633 301.272L96.6519 308.376L97.7212 309.428L96.7368 310.429H98.0474V311.929H107.821V310.429H117.595V311.929H127.37V310.429L137.143 310.429V311.929H146.917V310.429H156.691V311.929H166.465V310.429H176.239V311.929H186.013V310.429H195.788V311.929H205.561V310.429H215.335V311.929H225.109V310.429H234.883V311.929H244.657V310.429H254.431V311.929H264.206V310.429H273.979V311.929H283.753V310.429H285.063L284.08 309.428L285.149 308.376L278.168 301.272L277.098 302.324L270.117 295.22L271.187 294.169L264.206 287.064L263.135 288.116L256.154 281.012L257.224 279.961L250.243 272.856L249.172 273.908L242.191 266.805L243.261 265.753L236.28 258.649L235.209 259.7L228.228 252.597L229.298 251.545L222.317 244.441L221.247 245.492L214.265 238.389L215.335 237.337L208.354 230.233L207.284 231.285L200.302 224.181L201.373 223.13L194.391 216.025L193.321 217.077L190.901 214.613L188.479 217.077Z" fill="#00D0FF" fill-opacity="0.2" stroke="#BABABA" stroke-width="3" stroke-dasharray="10 10"/>
<path d="M129.627 212.874L122.997 206.358H122.996L121.945 207.428L115.315 200.911L116.366 199.842H116.367L109.737 193.326H109.736L108.685 194.396L102.054 187.879L103.106 186.81H103.107L96.4758 180.294H96.4749L95.4241 181.364L94.6604 180.614V181.69H93.1604V190.998H94.6604L94.6604 200.307H93.1604V209.616H94.6604V218.924H93.1604V228.233H94.6604V237.541H93.1604V246.85H94.6604V256.159H93.1604V265.467H94.6604V274.776H93.1604V284.084H94.6604V293.393H93.1604V302.702H94.6604V303.778L95.4241 303.028L96.4749 304.098L96.4758 304.099L103.107 297.582L103.106 297.581L102.054 296.512L108.685 289.996L109.736 291.066L109.737 291.067L116.366 284.55L115.315 283.48L121.945 276.964L122.996 278.034L122.997 278.035L129.627 271.518L128.575 270.448L135.205 263.932L136.257 265.002L142.888 258.487L142.887 258.486L141.836 257.416L148.466 250.9L149.518 251.97L156.149 245.454L156.148 245.453L155.097 244.384L157.323 242.197L155.097 240.007L156.148 238.938H156.149L149.519 232.422H149.518L148.466 233.492L141.836 226.976L142.887 225.906H142.888L136.258 219.39H136.257L135.205 220.459L128.575 213.944L129.627 212.874Z" fill="#FFEA00" fill-opacity="0.2" stroke="#BABABA" stroke-width="3" stroke-dasharray="10 10"/>
<path d="M122.996 144.285L129.625 137.768H129.626L130.678 138.839L137.308 132.322L136.256 131.253H136.255L142.886 124.736H142.887L143.938 125.806L150.569 119.29L149.517 118.22H149.516L156.147 111.705H156.148L157.199 112.774L157.962 112.024V113.1H159.462V122.409H157.962V131.717H159.462V141.026H157.962V150.335H159.462V159.643H157.962V168.952H159.462V178.26H157.962V187.569H159.462V196.878H157.962V206.186H159.462V215.495H157.962V224.803H159.462V234.112L157.962 234.112V235.188L157.199 234.438L156.148 235.508L156.147 235.509L149.516 228.993L149.517 228.992L150.569 227.922L143.938 221.407L142.887 222.476L142.886 222.477L136.256 215.961L137.308 214.89L130.678 208.375L129.626 209.444L129.625 209.445L122.996 202.928L124.047 201.858L117.417 195.342L116.366 196.413L109.735 189.897L109.736 189.896L110.787 188.827L104.157 182.31L103.105 183.38L96.4741 176.865L96.4751 176.864L97.5259 175.795L95.2993 173.607L97.5259 171.418L96.4751 170.348H96.4741L103.104 163.833H103.105L104.157 164.902L110.787 158.386L109.736 157.316H109.735L116.365 150.8H116.366L117.417 151.87L124.047 145.354L122.996 144.285Z" fill="#FFEA00" fill-opacity="0.2" stroke="#BABABA" stroke-width="3" stroke-dasharray="10 10"/>
<path d="M69.9094 154.24L70.9631 153.172H70.9641L63.1526 145.456H63.1516L62.0979 146.523L54.2864 138.807L55.3401 137.74H55.3411L47.5295 130.024H47.5286L46.4749 131.09L38.6633 123.374L39.717 122.307H39.718L31.9065 114.591H31.9055L30.8518 115.658L29.5002 114.323V115.363H28.0002V124.622H29.5002V133.881H28.0002V143.141H29.5002L29.5002 152.401H28.0002V161.66H29.5002V170.92H28.0002V180.179H29.5002V189.439H28.0002V198.699H29.5002V199.738L30.8518 198.403L31.9055 199.47L31.9065 199.471L39.718 191.755L39.717 191.754L38.6633 190.687L46.4749 182.97L47.5286 184.037L47.5295 184.038L55.3411 176.323L55.3401 176.322L54.2864 175.254L62.0979 167.537L63.1516 168.605L63.1526 168.606L70.9641 160.89L70.9631 160.889L69.9094 159.822L72.7356 157.031L69.9094 154.24Z" fill="#77FF00" fill-opacity="0.2" stroke="#BABABA" stroke-width="3" stroke-dasharray="10 10"/>
</svg>
