<svg width="600" height="400" viewBox="0 0 600 400" fill="none" xmlns="http://www.w3.org/2000/svg">
<rect width="600" height="400" fill="white"/>
<path d="M440.416 171.154L448.583 177.096V177.097L447.701 178.31L455.867 184.251L456.75 183.038V183.037L464.916 188.979H464.917L464.034 190.192L467.236 192.522L466.014 196.295L467.439 196.757L464.32 206.37L462.895 205.908L459.774 215.522L461.201 215.985L458.082 225.599L456.655 225.136L453.536 234.75L454.962 235.212L451.843 244.826L450.417 244.364L447.297 253.978L448.724 254.44L445.604 264.054L444.178 263.592L441.059 273.205L442.484 273.667L439.365 283.281L437.939 282.819L434.819 292.433L436.245 292.896L433.126 302.509L431.7 302.047L428.581 311.661L430.007 312.123L426.888 321.736L425.462 321.274L422.342 330.889L423.768 331.351L420.648 340.965L419.223 340.502L416.104 350.116L417.529 350.578L414.41 360.192L412.984 359.73L411.761 363.5H407.804V365H397.709V363.5H387.614V365H377.521V363.5H367.426V365H357.331V363.5H347.236V365H337.142V363.5H327.047V365H316.953V363.5H306.858V365H296.764V363.5H286.669V365H276.574V363.5H266.479V365H256.386V363.5H246.291V365H236.196V363.5H232.239L231.016 359.73L229.589 360.192L226.47 350.578L227.896 350.116L224.777 340.502L223.351 340.964L220.231 331.351L221.658 330.889L218.538 321.274L217.111 321.736L213.992 312.123L215.419 311.661L212.3 302.047L210.873 302.509L207.754 292.896L209.181 292.433L206.061 282.819L204.634 283.281L201.515 273.667L202.941 273.205L199.822 263.592L198.396 264.054L195.275 254.44L196.703 253.978L193.583 244.364L192.156 244.826L189.037 235.212L190.464 234.75L187.345 225.136L185.917 225.599L182.798 215.985L184.226 215.522L181.105 205.908L179.679 206.37L176.56 196.757L177.986 196.295L176.763 192.522L179.966 190.192L179.083 188.979L187.249 183.037L187.25 183.038L188.133 184.251L196.299 178.31L195.417 177.097L195.416 177.096L203.583 171.154L204.466 172.367L212.633 166.426L211.75 165.213L211.749 165.212L219.916 159.271L219.917 159.271L220.799 160.484L228.966 154.542L228.083 153.329L236.249 147.387L236.25 147.388L237.133 148.601L245.299 142.659L244.417 141.446L244.416 141.445L252.583 135.504L253.466 136.718L261.633 130.775L260.75 129.562L268.916 123.62L268.917 123.621L269.799 124.834L277.966 118.893L277.083 117.68L277.082 117.679L285.25 111.737L286.133 112.95L294.299 107.009L293.417 105.796L293.416 105.795L301.582 99.8535L301.583 99.8545L302.466 101.067L310.633 95.125L309.75 93.9121L317.916 87.9697L317.917 87.9707L318.799 89.1836L322 86.8545L325.201 89.1836L326.083 87.9707V87.9697L334.249 93.9121L333.367 95.126L341.534 101.067L342.417 99.8545V99.8535L350.583 105.795V105.796L349.701 107.009L357.867 112.95L358.749 111.737L366.917 117.679V117.68L366.034 118.893L374.201 124.834L375.083 123.621V123.62L383.249 129.562H383.25L382.367 130.775L390.534 136.718L391.416 135.504L399.583 141.445V141.446L398.701 142.659L406.867 148.601L407.75 147.388V147.387L415.916 153.329L415.034 154.542L423.201 160.484L424.083 159.271V159.271L432.25 165.212V165.213L431.367 166.426L439.534 172.367L440.416 171.154Z" fill="#FF00B7" fill-opacity="0.2" stroke="#BABABA" stroke-width="3" stroke-dasharray="10 10"/>
<circle cx="321.5" cy="47.5" r="33" fill="#FF7B00" fill-opacity="0.2" stroke="#BABABA" stroke-width="3" stroke-dasharray="10 10"/>
<rect x="470.5" y="194.5" width="25" height="100" fill="#77FF00" fill-opacity="0.2" stroke="#BABABA" stroke-width="3" stroke-dasharray="10 10"/>
<path d="M165.952 253.872L154.538 251.703L154.537 251.702L154.817 250.229L143.402 248.058L143.122 249.532L131.708 247.361L131.707 247.362L131.988 245.888L128.864 245.294L130.059 243.938L128.933 242.946L134.8 236.287L135.925 237.278L141.792 230.619L140.666 229.627L146.533 222.968L147.659 223.959L153.525 217.3L152.4 216.308L158.266 209.649L159.392 210.64L165.258 203.981L164.133 202.989L169.999 196.33L171.125 197.321L172.32 195.965L173.303 198.989L174.729 198.525L178.321 209.575L176.895 210.039L180.487 221.089L181.914 220.625L181.915 220.625L185.507 231.674L184.081 232.138L187.673 243.188L189.099 242.724L192.693 253.775L192.692 253.775L191.265 254.239L192.278 257.352L189.062 256.74L188.781 258.214L188.782 258.214L177.366 256.044L177.647 254.57L166.232 252.4L165.952 253.872Z" fill="#FF0000" fill-opacity="0.2" stroke="#BABABA" stroke-width="3" stroke-dasharray="10 10"/>
<path d="M131.003 185.065L142.417 187.235L142.418 187.235L142.137 188.709L153.552 190.879L153.832 189.405L165.247 191.576L165.247 191.576L164.967 193.049L168.091 193.643L166.896 195L168.021 195.991L162.155 202.651L161.029 201.659L155.163 208.319L156.288 209.31L150.422 215.97L149.296 214.978L143.429 221.638L144.555 222.629L138.688 229.289L137.563 228.297L131.696 234.957L132.822 235.948L126.955 242.608L125.83 241.616L124.635 242.972L123.652 239.949L122.226 240.413L118.633 229.363L120.06 228.899L116.467 217.848L115.041 218.312L115.039 218.313L111.448 207.263L112.874 206.799L109.282 195.749L107.855 196.213L104.261 185.163L104.263 185.163L105.689 184.699L104.676 181.585L107.893 182.197L108.173 180.724L108.173 180.723L119.588 182.894L119.308 184.367L130.723 186.538L131.003 185.065Z" fill="#FF0000" fill-opacity="0.2" stroke="#BABABA" stroke-width="3" stroke-dasharray="10 10"/>
</svg>
