<svg width="600" height="400" viewBox="0 0 600 400" fill="none" xmlns="http://www.w3.org/2000/svg">
<rect width="600" height="400" fill="white"/>
<path d="M294 171H468V306H294V171Z" fill="#77FF00" fill-opacity="0.2"/>
<path d="M49 117H150V167H49V117Z" fill="#FF7B00" fill-opacity="0.2"/>
<path d="M449 152.384L479.327 94L506.646 108.19L476.318 166.574L449 152.384Z" fill="#8400FF" fill-opacity="0.2"/>
<path d="M478 170.892L539.679 148L550.391 176.86L488.711 199.753L478 170.892Z" fill="#CF6AEB" fill-opacity="0.2"/>
<path d="M155 32H290V167H155V32Z" fill="#FFEA00" fill-opacity="0.2"/>
<path d="M289.243 170.757L154 170.487L289.513 306L289.243 170.757Z" fill="#FF0088" fill-opacity="0.2"/>
<path d="M426.128 370.137L486.265 370.257L426.008 310L426.128 370.137Z" fill="#00D0FF" fill-opacity="0.2"/>
<path d="M411.137 370.137L351 370.257L411.257 310L411.137 370.137Z" fill="#FF0000" fill-opacity="0.2"/>
<path d="M409.747 315.009L411.246 315.011L411.227 325.034L409.727 325.031L409.707 335.054L411.206 335.056L411.187 345.08L409.687 345.077L409.667 355.1L411.166 355.102L411.146 365.125L409.646 365.122L409.639 368.639L406.122 368.646L406.125 370.146L396.102 370.166L396.1 368.667L386.077 368.687L386.08 370.187L376.057 370.206L376.054 368.707L366.031 368.727L366.034 370.227L356.012 370.246L356.009 368.746L354.628 368.749L355.827 367.551L354.767 366.49L362.298 358.958L363.359 360.02L370.891 352.487L369.83 351.427L377.362 343.895L378.423 344.955L385.955 337.423L384.895 336.362L392.427 328.83L393.487 329.891L401.02 322.358L399.959 321.298L407.491 313.766L408.552 314.827L409.749 313.628L409.747 315.009ZM444.838 328.83L452.37 336.361L451.31 337.423L458.842 344.955L459.902 343.894L467.435 351.426L466.374 352.487L473.906 360.02L474.966 358.958L482.498 366.49L481.438 367.551L482.636 368.749L481.257 368.746L481.253 370.246L471.229 370.227H471.23L471.233 368.727L461.211 368.707L461.208 370.206L451.185 370.187L451.188 368.687L441.165 368.667L441.162 370.166L431.139 370.146H431.14L431.143 368.646L427.625 368.639L427.618 365.122L426.117 365.125L426.098 355.103L427.599 355.1L427.578 345.077L426.078 345.079L426.058 335.057L427.559 335.054L427.538 325.031L426.038 325.033L426.019 315.011L427.519 315.009L427.516 313.629L428.714 314.827L429.773 313.766L437.306 321.298L436.246 322.358L443.778 329.891L444.838 328.83ZM463.167 171V172.5H466.5V175.821H468V185.464H466.5V195.107H468V204.75H466.5V214.393H468V224.036H466.5V233.679H468V243.321H466.5V252.964H468V262.607H466.5V272.25H468V281.893H466.5V291.536H468V301.179H466.5V304.5H463.167V306H453.5V304.5H443.833V306H434.167V304.5H424.5V306H414.833V304.5H405.167V306H395.5V304.5H385.833V306H376.167V304.5H366.5V306H356.833V304.5H347.167V306H337.5V304.5H327.833V306H318.167V304.5H308.5V306H298.833V304.5H295.5V301.179H294V291.536H295.5V281.893H294V272.25H295.5V262.607H294V252.964H295.5V243.321H294V233.679H295.5V224.036H294V214.393H295.5V204.75H294V195.107H295.5V185.464H294V175.821H295.5V172.5H298.833V171H308.5V172.5H318.167V171H327.833V172.5H337.5V171H347.167V172.5H356.833V171H366.5V172.5H376.167V171H385.833V172.5H395.5V171H405.167V172.5H414.833V171H424.5V172.5H434.167V171H443.833V172.5H453.5V171H463.167ZM289.368 233.548L289.388 243.207V243.208L287.888 243.211L287.907 252.872L289.407 252.869V252.868L289.426 262.529H289.427L287.927 262.532L287.945 272.192L289.445 272.189V272.188L289.465 281.849V281.85L287.965 281.853L287.984 291.513L289.484 291.51V291.509L289.504 301.169V301.17L288.004 301.173L288.006 302.372L287.186 301.552L286.125 302.611L279.35 295.836L280.41 294.775L273.635 288L272.573 289.061L265.798 282.285L266.859 281.225L260.083 274.449L259.022 275.509L252.246 268.733L253.308 267.673L246.532 260.897L245.471 261.958L238.695 255.182L239.757 254.122L232.98 247.347L231.92 248.406L225.144 241.631L226.205 240.57L219.43 233.795L218.369 234.855H218.368L211.593 228.079L212.653 227.02L205.878 220.243L204.817 221.304L198.041 214.528H198.042L199.103 213.468L192.327 206.692L191.267 207.753H191.266L184.49 200.977L185.551 199.917L178.775 193.141L177.715 194.201H177.714L170.938 187.426H170.939L172 186.365L165.225 179.59L164.163 180.649L157.388 173.874L158.448 172.814L157.627 171.993L158.827 171.996L158.829 170.496L168.489 170.516L168.487 172.016L178.147 172.035L178.149 170.535L187.811 170.554V170.555L187.808 172.055L197.468 172.073L197.47 170.573L207.13 170.593L207.128 172.093L216.789 172.112L216.791 170.612L226.451 170.631L226.449 172.131L236.109 172.15L236.111 170.65L245.771 170.67L245.77 172.17L255.43 172.189L255.432 170.689L265.092 170.708L265.09 172.208L274.75 172.228L274.752 170.728L284.412 170.747L284.41 172.247L287.746 172.253L287.753 175.59L289.252 175.587L289.271 185.247H289.272L287.772 185.25L287.792 194.91L289.291 194.907L289.311 204.566V204.567L287.811 204.57L287.83 214.23L289.33 214.228V214.227L289.349 223.888H289.35L287.85 223.891L287.869 233.551L289.368 233.548ZM541.018 151.607L543.695 158.822H543.696L542.29 159.345L544.968 166.56L546.374 166.038V166.037L549.052 173.252V173.253L547.646 173.774L548.462 175.976L544.729 177.362L545.25 178.768L534.971 182.583L534.449 181.177L524.169 184.992L524.691 186.398L514.411 190.214L513.89 188.808L503.609 192.623L504.131 194.029L493.852 197.845L493.329 196.438L489.596 197.824L488.778 195.623L487.372 196.144L484.694 188.929L486.101 188.408L483.423 181.192L482.017 181.714L479.339 174.499L480.745 173.978L479.928 171.776L483.662 170.391L483.14 168.984L493.42 165.169L493.941 166.575L504.222 162.76L503.699 161.354L513.979 157.538L514.502 158.944L524.781 155.129L524.26 153.723L534.539 149.907L535.062 151.314L538.795 149.928L539.612 152.13L541.018 151.607ZM285.179 32V33.5H288.5V36.8213H290V46.4639H288.5V56.1074H290V65.75H288.5V75.3926H290V85.0361H288.5V94.6787H290V104.321H288.5V113.964H290V123.607H288.5V133.25H290V142.893H288.5V152.536H290V162.179H288.5V165.5H285.179V167H275.536V165.5H265.893V167H256.25V165.5H246.607V167H236.964V165.5H227.321V167H217.679V165.5H208.036V167H198.393V165.5H188.75V167H179.107V165.5H169.464V167H159.821V165.5H156.5V162.179H155V152.536H156.5V142.893H155V133.25H156.5V123.607H155V113.964H156.5V104.321H155V94.6787H156.5V85.0361H155V75.3926H156.5V65.75H155V56.1074H156.5V46.4639H155V36.8213H156.5V33.5H159.821V32H169.464V33.5H179.107V32H188.75V33.5H198.393V32H208.036V33.5H217.679V32H227.321V33.5H236.964V32H246.607V33.5H256.25V32H265.893V33.5H275.536V32H285.179ZM144.95 117V118.5H148.5V121.167H150V129.5H148.5V137.833H150V146.167H148.5V154.5H150V162.833H148.5V165.5H144.95V167H134.85V165.5H124.75V167H114.65V165.5H104.55V167H94.4502V165.5H84.3496V167H74.25V165.5H64.1504V167H54.0498V165.5H50.5V162.833H49V154.5H50.5V146.167H49V137.833H50.5V129.5H49V121.167H50.5V118.5H54.0498V117H64.1504V118.5H74.25V117H84.3496V118.5H94.4502V117H104.55V118.5H114.65V117H124.75V118.5H134.85V117H144.95ZM496.4 102.869L503.23 106.416V106.417L502.539 107.748L504.622 108.83L502.787 112.364L504.118 113.056L499.063 122.786L497.732 122.095L492.678 131.825L494.009 132.517L488.954 142.246L487.623 141.556L482.569 151.287L483.899 151.978L478.845 161.708L477.515 161.018L475.679 164.551L473.595 163.469L472.903 164.8H472.902L466.073 161.253L466.766 159.922L459.936 156.374L459.244 157.704L452.414 154.157H452.415L453.106 152.826L451.022 151.743L452.858 148.21L451.527 147.519L451.526 147.518L456.581 137.787L456.582 137.788L457.913 138.479L462.968 128.748L461.637 128.057L461.636 128.056L466.69 118.326L468.022 119.018L473.076 109.287L471.745 108.596L476.8 98.8652L478.131 99.5566L479.967 96.0215L482.051 97.1045L482.741 95.7734L489.571 99.3203V99.3213L488.88 100.652L495.71 104.2L496.4 102.869Z" stroke="#BABABA" stroke-width="3" stroke-dasharray="10 10"/>
</svg>
