<svg width="600" height="400" viewBox="0 0 600 400" fill="none" xmlns="http://www.w3.org/2000/svg">
<rect width="600" height="400" fill="white"/>
<rect x="127.5" y="161.5" width="344" height="219" fill="#FFEA00" fill-opacity="0.2" stroke="#BABABA" stroke-width="3" stroke-dasharray="10 10"/>
<rect x="165.5" y="195.5" width="74" height="74" fill="#00BFFF" fill-opacity="0.3" stroke="#BABABA" stroke-width="3" stroke-dasharray="10 10"/>
<rect x="362.5" y="195.5" width="74" height="74" fill="#00BFFF" fill-opacity="0.3" stroke="#BABABA" stroke-width="3" stroke-dasharray="10 10"/>
<rect x="266.5" y="272.5" width="66" height="108" fill="#5F2E00" fill-opacity="0.2" stroke="#BABABA" stroke-width="3" stroke-dasharray="10 10"/>
<path d="M467.836 131.692L476.048 137.384V137.385L475.193 138.617L483.405 144.31L484.26 143.077V143.076L492.471 148.769V148.77L491.616 150.002L499.828 155.694L500.683 154.462V154.461L508.895 160.153V160.154L508.04 161.387L508.203 161.5H507.917V163H497.75V161.5H487.583V163H477.417V161.5H467.25V163H457.083V161.5H446.917V163H436.75V161.5H426.583V163H416.417V161.5H406.25V163H396.083V161.5H385.917V163H375.75V161.5H365.583V163H355.417V161.5H345.25V163H335.083V161.5H324.917V163H314.75V161.5H304.583V163H294.417V161.5H284.25V163H274.083V161.5H263.917V163H253.75V161.5H243.583V163H233.417V161.5H223.25V163H213.083V161.5H202.917V163H192.75V161.5H182.583V163H172.417V161.5H162.25V163H152.083V161.5H141.917V163H131.75V161.5H121.583V163H111.417V161.5H101.25V163H91.083V161.5H90.7969L90.96 161.387L90.1055 160.154L90.1045 160.153L98.3164 154.461L98.3174 154.462L99.1719 155.694L107.384 150.002L106.529 148.77L106.528 148.769L114.739 143.076L114.74 143.077L115.595 144.31L123.807 138.617L122.952 137.385L122.951 137.384L131.163 131.692L132.018 132.925L140.229 127.232L139.375 126L147.586 120.307L147.587 120.308L148.441 121.54L156.652 115.849L155.798 114.615L164.01 108.923L164.864 110.156L173.076 104.464L172.221 103.23L180.433 97.5381L181.287 98.7715L189.499 93.0791L188.645 91.8457L196.854 86.1533L196.855 86.1543L197.71 87.3867L205.922 81.6943L205.067 80.4619L205.066 80.4609L213.278 74.7686L213.279 74.7695L214.134 76.002L222.345 70.3096L221.49 69.0771L221.489 69.0762L229.701 63.3838L229.702 63.3848L230.557 64.6172L238.768 58.9248L237.913 57.6924L246.125 52L246.979 53.2324L255.191 47.54L254.337 46.3076L254.336 46.3066L262.548 40.6152L263.402 41.8486L271.614 36.1562L270.76 34.9229L278.971 29.2305L279.826 30.4639L288.037 24.7715L287.183 23.5381L295.395 17.8457L296.249 19.0791L299.5 16.8242L302.751 19.0791L303.604 17.8457L311.816 23.5381L310.963 24.7715L319.174 30.4639L320.028 29.2305L328.239 34.9229H328.24L327.386 36.1562L335.598 41.8486L336.451 40.6152L344.663 46.3066V46.3076L343.809 47.54L352.021 53.2324L352.875 52L361.086 57.6924H361.087L360.232 58.9248L368.443 64.6172L369.298 63.3848V63.3838L377.51 69.0762V69.0771L376.655 70.3096L384.866 76.002L385.721 74.7695V74.7686L393.933 80.4609V80.4619L393.078 81.6943L401.29 87.3867L402.145 86.1543V86.1533L410.354 91.8457H410.355L409.501 93.0791L417.713 98.7715L418.566 97.5381L426.778 103.23L425.924 104.464L434.136 110.156L434.989 108.923L443.201 114.615H443.202L442.348 115.849L450.559 121.54L451.413 120.308V120.307L459.625 126L458.771 127.232L466.982 132.925L467.836 131.692Z" fill="#FF0000" fill-opacity="0.2" stroke="#BABABA" stroke-width="3" stroke-dasharray="10 10"/>
</svg>
