<svg width="600" height="400" viewBox="0 0 600 400" fill="none" xmlns="http://www.w3.org/2000/svg">
<rect width="600" height="400" fill="white"/>
<rect x="84.1213" y="206.775" width="227" height="227" transform="rotate(-45 84.1213 206.775)" fill="#FF7B00" fill-opacity="0.2" stroke="#BABABA" stroke-width="3" stroke-dasharray="10 10"/>
<path d="M294.053 325.273L293 324.203L301 316.328L302.053 317.398L310.053 309.523L309 308.453L317 300.578L318.053 301.648L326.053 293.773L325 292.703L333 284.828L334.053 285.898L342.053 278.023L341 276.953L349 269.078L350.053 270.148L351.5 268.723V270.391H353V280.891H351.5V291.391H353V301.891H351.5V312.391H353V322.891H351.5V333.391H353V343.891H351.5V354.391H353V364.891H351.5V375.391H353V385.891H351.5V387.559L350.053 386.134L349 387.203L341 379.328L342.053 378.259L334.053 370.384L333 371.453L325 363.578L326.053 362.509L318.053 354.634L317 355.703L309 347.828L310.053 346.759L302.053 338.884L301 339.953L293 332.078L294.053 331.009L291.139 328.141L294.053 325.273Z" fill="#00D0FF" fill-opacity="0.2" stroke="#BABABA" stroke-width="3" stroke-dasharray="10 10"/>
<path d="M411.491 204.318L410.438 203.25L417.312 196.469L418.366 197.537L425.241 190.756L424.188 189.688L431.062 182.906L432.116 183.975L438.991 177.193L437.938 176.125L444.812 169.344L445.866 170.412L452.741 163.631L451.688 162.563L458.562 155.781L459.616 156.85L466.491 150.068L465.438 149L472.312 142.219L473.366 143.287L480.241 136.506L479.188 135.438L486.062 128.656L487.116 129.725L493.991 122.943L492.938 121.875L499.812 115.094L500.866 116.162L507.741 109.381L506.688 108.313L513.562 101.531L514.616 102.6L515.5 101.728V103.072H517V112.937H515.5V122.8H517V132.663H515.5V142.527H517V152.391H515.5V162.254H517V172.118H515.5V181.982H517V191.845H515.5V201.709H517V211.572H515.5V221.437H517V231.3H515.5V241.163H517V251.027H515.5V260.891H517V270.754H515.5V280.618H517V290.482H515.5V300.345H517V310.209H515.5V311.554L514.616 310.682L513.562 311.75L506.688 304.969L507.741 303.901L500.866 297.119L499.812 298.188L492.938 291.406L493.991 290.338L487.116 283.557L486.062 284.625L479.188 277.844L480.241 276.776L473.366 269.994L472.312 271.063L465.438 264.281L466.491 263.213L459.616 256.432L458.562 257.5L451.688 250.719L452.741 249.651L445.866 242.869L444.812 243.938L437.938 237.156L438.991 236.088L432.116 229.307L431.062 230.375L424.188 223.594L425.241 222.526L418.366 215.744L417.312 216.813L410.438 210.031L411.491 208.963L409.137 206.641L411.491 204.318Z" fill="#77FF00" fill-opacity="0.2" stroke="#BABABA" stroke-width="3" stroke-dasharray="10 10"/>
<path d="M274.608 35.3089L285.77 32.0839L285.771 32.0842L286.187 33.5253L297.35 30.3006L296.934 28.8595L308.097 25.6357L308.097 25.6347L308.513 27.0758L311.568 26.1934L311.115 27.9434L312.568 28.319L310.346 36.9113L308.893 36.5357L306.671 45.128L308.123 45.5036L305.901 54.0959L304.449 53.7204L302.227 62.3127L303.679 62.6882L301.457 71.2806L300.005 70.905L297.783 79.4973L299.235 79.8729L297.013 88.4652L295.561 88.0896L295.108 89.8396L292.864 87.587L291.802 88.6456L283.602 80.4133L284.664 79.3546L276.464 71.1223L275.402 72.181L275.4 72.1817L267.201 63.9496L268.264 62.8909L260.064 54.6586L259.001 55.7173L250.8 47.4857L250.801 47.485L251.864 46.4263L249.553 44.1067L252.699 43.1985L252.283 41.7574L252.282 41.7572L263.446 38.5327L263.862 39.9738L275.025 36.7491L274.608 35.3089Z" fill="#00D0FF" fill-opacity="0.2" stroke="#BABABA" stroke-width="3" stroke-dasharray="10 10"/>
</svg>
