<svg width="600" height="400" viewBox="0 0 600 400" fill="none" xmlns="http://www.w3.org/2000/svg">
<rect width="600" height="400" fill="white"/>
<path d="M302.806 30.9893L303.875 29.9375L311.625 37.8125L310.556 38.8643L318.306 46.7393L319.375 45.6875L327.125 53.5625L326.056 54.6143L333.806 62.4893L334.875 61.4375L342.625 69.3125L341.556 70.3643L349.306 78.2393L350.375 77.1875L358.125 85.0625L357.056 86.1143L358.419 87.5H356.833V89H346.5V87.5H336.167V89H325.833V87.5H315.5V89H305.167V87.5H294.833V89H284.5V87.5H274.167V89H263.833V87.5H253.5V89H243.167V87.5H241.581L242.944 86.1143L241.875 85.0625L249.625 77.1875L250.694 78.2393L258.444 70.3643L257.375 69.3125L265.125 61.4375L266.194 62.4893L273.944 54.6143L272.875 53.5625L280.625 45.6875L281.694 46.7393L289.444 38.8643L288.375 37.8125L296.125 29.9375L297.194 30.9893L300 28.1377L302.806 30.9893Z" fill="#FF0000" fill-opacity="0.2" stroke="#BABABA" stroke-width="3" stroke-dasharray="10 10"/>
<path d="M233.607 307.675L235.107 307.675L235.107 307.676L235.106 297.183L235.107 297.183L233.607 297.183L233.607 286.69L235.107 286.691L235.107 286.691L235.106 276.2L235.107 276.199L233.607 276.199L233.607 265.707L235.107 265.707L235.107 265.708L235.106 255.215L235.107 255.215L233.607 255.214L233.607 244.722L235.107 244.722L235.107 244.723L235.107 234.231L235.106 234.23L233.607 234.23L233.608 223.738L235.107 223.739L235.106 213.247L235.107 213.246L233.607 213.246L233.607 212.906L232.653 212.371L227.748 221.113L229.056 221.847L224.15 230.588L222.842 229.854L222.841 229.854L217.935 238.595L219.243 239.329L214.337 248.071L213.029 247.337L208.122 256.078L208.123 256.078L209.431 256.812L204.525 265.553L203.217 264.82L198.311 273.561L199.619 274.295L194.712 283.036L193.404 282.302L193.404 282.303L188.498 291.044L189.806 291.777L184.9 300.519L183.592 299.785L183.591 299.786L178.685 308.527L178.686 308.526L179.994 309.26L178.794 311.399L181.14 311.399L181.139 312.9L190.951 312.904L190.952 311.403L200.765 311.407L200.764 312.908L210.576 312.912L210.576 311.412L220.389 311.416L220.389 312.915L230.201 312.919L230.202 311.42L233.607 311.421L233.607 307.675Z" fill="#FF0000" fill-opacity="0.2" stroke="#BABABA" stroke-width="3" stroke-dasharray="10 10"/>
<path d="M364.959 307.675L363.459 307.675L363.459 307.676L363.46 297.183L363.459 297.183L364.96 297.183L364.959 286.69L363.459 286.691L363.459 286.691L363.46 276.2L363.459 276.199L364.959 276.199L364.959 265.707L363.459 265.707L363.459 265.708L363.46 255.215L363.459 255.215L364.959 255.214L364.959 244.722L363.459 244.722L363.459 244.723L363.459 234.231L363.46 234.23L364.96 234.23L364.959 223.738L363.459 223.739L363.46 213.247L363.459 213.246L364.959 213.246L364.959 212.906L365.913 212.371L370.818 221.113L369.51 221.847L374.417 230.588L375.724 229.854L375.725 229.854L380.631 238.595L379.323 239.329L384.229 248.071L385.537 247.337L390.444 256.078L390.443 256.078L389.135 256.812L394.041 265.553L395.349 264.82L400.255 273.561L398.948 274.295L403.854 283.036L405.162 282.302L405.162 282.303L410.068 291.044L408.76 291.777L413.666 300.519L414.974 299.785L414.975 299.786L419.881 308.527L419.88 308.526L418.572 309.26L419.772 311.399L417.427 311.399L417.427 312.9L407.615 312.904L407.614 311.403L397.802 311.407L397.802 312.908L387.99 312.912L387.99 311.412L378.177 311.416L378.177 312.915L368.365 312.919L368.365 311.42L364.959 311.421L364.959 307.675Z" fill="#FF0000" fill-opacity="0.2" stroke="#BABABA" stroke-width="3" stroke-dasharray="10 10"/>
<rect x="239.5" y="92.5" width="120" height="219" fill="#8CB1FF" fill-opacity="0.3" stroke="#BABABA" stroke-width="3" stroke-dasharray="10 10"/>
<rect x="268.5" y="317.5" width="63" height="63" fill="#ABABAB" fill-opacity="0.3" stroke="#BABABA" stroke-width="3" stroke-dasharray="10 10"/>
<circle cx="300" cy="153" r="33.5" fill="white" stroke="#BABABA" stroke-width="3" stroke-dasharray="10 10"/>
</svg>
