<svg width="600" height="400" viewBox="0 0 600 400" fill="none" xmlns="http://www.w3.org/2000/svg">
<rect width="600" height="400" fill="white"/>
<path d="M261.056 58.4283L260.196 57.1997L268.329 51.5049L269.189 52.7335L277.323 47.038L276.463 45.8094L284.596 40.1146L285.456 41.3432L293.59 35.6477L292.73 34.4191L300.863 28.7243L301.724 29.9521L302.824 29.1822L302.538 30.8017L304.015 31.0622L302.187 41.4335L300.709 41.173L298.881 51.5442L300.358 51.8047L298.529 62.1769L297.052 61.9165L295.223 72.2877L296.7 72.5482L294.871 82.9194L293.394 82.659L291.565 93.0312L293.043 93.2917L291.214 103.663L289.737 103.402L289.451 105.021L288.681 103.921L287.452 104.782L281.757 96.6486L282.986 95.7883L277.29 87.6542L276.061 88.5145L270.367 80.3815L271.595 79.5213L265.9 71.3872L264.671 72.2474L258.976 64.1145L260.205 63.2533L258.217 60.4158L261.056 58.4283Z" fill="#8CB1FF" fill-opacity="0.3" stroke="#BABABA" stroke-width="3" stroke-dasharray="10 10"/>
<path d="M221.168 56.5948L222.396 55.7346L216.702 47.6016L215.473 48.4619L209.777 40.3278L211.006 39.4675L205.311 31.3346L204.083 32.1949L198.387 24.0608L199.616 23.2005L193.921 15.0676L192.692 15.9267L191.922 14.8271L191.636 16.4466L190.159 16.1862L188.33 26.5574L189.807 26.8179L187.979 37.1891L186.501 36.9287L184.672 47.3009L186.15 47.5614L184.321 57.9326L182.844 57.6721L181.015 68.0434L182.492 68.3039L180.663 78.6761L179.186 78.4156L177.357 88.7869L178.835 89.0473L178.549 90.6659L179.649 89.896L180.51 91.1247L188.643 85.43L187.783 84.2014L195.917 78.5058L196.777 79.7344L204.91 74.0397L204.05 72.8111L212.184 67.1155L213.044 68.3441L221.177 62.6494L220.317 61.4198L223.155 59.4333L221.168 56.5948Z" fill="#8CB1FF" fill-opacity="0.3" stroke="#BABABA" stroke-width="3" stroke-dasharray="10 10"/>
<rect x="444.592" y="271.262" width="18.0736" height="122.509" transform="rotate(37.6831 444.592 271.262)" fill="#FFEA00" fill-opacity="0.2" stroke="#BABABA" stroke-width="3" stroke-dasharray="10 10"/>
<rect x="159.095" y="112.628" width="105.016" height="105.016" transform="rotate(-36 159.095 112.628)" fill="#5F2E00" fill-opacity="0.2" stroke="#BABABA" stroke-width="3" stroke-dasharray="10 10"/>
<path d="M347.394 204.807L354.99 210.324V210.325L354.108 211.539L361.702 217.058L362.584 215.844V215.843L370.179 221.362V221.363L369.298 222.575L376.893 228.094L377.774 226.88L385.368 232.399H385.369L384.488 233.613L392.082 239.131L392.964 237.917V237.916L400.559 243.435V243.436L399.677 244.649L402.592 246.767L401.479 250.196L402.906 250.659L400.004 259.587L398.578 259.124L395.677 268.053L397.104 268.517L394.202 277.445L392.777 276.982L389.875 285.91L391.302 286.374L388.401 295.303L386.974 294.839L384.073 303.769L385.5 304.232L382.599 313.16L381.172 312.698L378.272 321.626L379.698 322.089L376.796 331.018L375.37 330.555L372.469 339.484L373.896 339.948L370.994 348.875L369.569 348.412L366.667 357.341L368.094 357.805L365.193 366.734L363.767 366.27L360.865 375.198L362.292 375.662L359.391 384.591L357.964 384.128L356.851 387.556H353.246V389.056H343.859V387.556H334.471V389.056H325.083V387.556H315.696V389.056H306.308V387.556H296.92V389.056H287.532V387.556H278.145V389.056H268.757V387.556H259.369V389.056H249.982V387.556H240.593V389.056H231.205V387.556H221.818V389.056H212.43V387.556H208.826L207.712 384.128L206.285 384.59L203.384 375.662L204.812 375.198L201.91 366.27L200.484 366.733L197.582 357.805L199.009 357.341L196.109 348.412L194.682 348.875L191.781 339.947L193.207 339.484L190.307 330.555L188.88 331.018L185.979 322.088L187.406 321.626L184.504 312.698L183.077 313.16L180.176 304.232L181.604 303.769L178.702 294.839L177.276 295.302L174.374 286.374L175.802 285.91L172.901 276.982L171.474 277.445L168.573 268.517L169.999 268.053L167.099 259.124L165.672 259.587L162.771 250.658L164.198 250.196L163.083 246.767L165.999 244.649L165.118 243.436L165.117 243.435L172.712 237.916L172.713 237.917L173.595 239.13L181.19 233.613L180.308 232.399L180.307 232.398L187.903 226.88L188.784 228.094L196.379 222.575L195.497 221.363L195.496 221.362L203.092 215.844L203.974 217.058L211.569 211.539L210.687 210.325L218.281 204.806L218.282 204.807L219.163 206.021L226.759 200.502L225.877 199.289L225.876 199.288L233.471 193.77L233.472 193.771L234.354 194.985L241.948 189.466L241.067 188.252L241.066 188.251L248.661 182.734L249.543 183.948L257.138 178.429L256.256 177.216L256.255 177.215L263.851 171.698L264.733 172.911L272.327 167.393L271.447 166.179L271.446 166.178L279.04 160.659L279.041 160.66L279.923 161.874L282.838 159.756L285.754 161.874L286.635 160.66L294.23 166.179H294.231L293.349 167.393L300.944 172.911L301.825 171.698V171.697L309.42 177.215V177.216L308.538 178.429L316.134 183.948L317.014 182.734L324.61 188.252L323.729 189.466L331.323 194.985L332.204 193.771L339.8 199.288V199.289L338.918 200.502L346.513 206.021L347.394 204.807Z" fill="#FF00B7" fill-opacity="0.2" stroke="#BABABA" stroke-width="3" stroke-dasharray="10 10"/>
</svg>
