<svg width="600" height="400" viewBox="0 0 600 400" fill="none" xmlns="http://www.w3.org/2000/svg">
<rect width="600" height="400" fill="white"/>
<path d="M218.124 93.5068L226.708 99.7451V99.7461L225.826 100.959L229.236 103.438L227.935 107.449L229.36 107.913L226.082 118.007L224.655 117.544L221.377 127.639L222.803 128.101L219.524 138.195L218.099 137.733L214.82 147.827L216.246 148.291L212.967 158.385L211.541 157.922L208.263 168.017L209.689 168.479L206.41 178.573L204.984 178.111L201.706 188.206L203.132 188.668L199.854 198.764L198.427 198.3L195.148 208.395L196.574 208.857L193.296 218.952L191.87 218.489L190.567 222.5H186.353V224H175.743V222.5H165.134V224H154.524V222.5H143.914V224H133.305V222.5H122.695V224H112.086V222.5H101.476V224H90.8662V222.5H80.2568V224H69.6475V222.5H65.4326L64.1299 218.489L62.7031 218.952L59.4248 208.857L60.8516 208.395L57.5732 198.3L56.1455 198.764L52.8672 188.668L54.2939 188.206L51.0156 178.111L49.5889 178.573L46.3096 168.479L47.7373 168.017L44.459 157.922L43.0322 158.385L39.7529 148.291L41.1797 147.827L37.9014 137.733L36.4746 138.195L33.1963 128.101L34.623 127.639L31.3447 117.544L29.917 118.007L26.6387 107.913L28.0654 107.449L26.7627 103.438L30.1738 100.959L29.292 99.7461L29.291 99.7451L37.875 93.5068L38.7568 94.7207L47.3398 88.4814L46.458 87.2686L46.457 87.2676L55.042 81.0293L55.9238 82.2432L64.5068 76.0039L63.625 74.791L63.624 74.79L72.208 68.5518L73.0898 69.7656L81.6738 63.5264L80.792 62.3135L80.791 62.3125L89.375 56.0742L90.2568 57.2881L98.8398 51.0488L97.958 49.8359L97.957 49.835L106.542 43.5967L107.424 44.8105L116.007 38.5713L115.125 37.3584L115.124 37.3574L123.708 31.1191L124.59 32.333L128 29.8535L131.41 32.333L132.291 31.1191L140.875 37.3574V37.3584L139.993 38.5713L148.576 44.8105L149.457 43.5967L158.042 49.835V49.8359L157.16 51.0488L165.743 57.2881L166.624 56.0742L175.208 62.3125V62.3135L174.326 63.5264L182.91 69.7656L183.791 68.5518L192.375 74.79V74.791L191.493 76.0039L200.076 82.2432L200.957 81.0293L209.542 87.2676V87.2686L208.66 88.4814L217.243 94.7207L218.124 93.5068Z" stroke="#BABABA" stroke-width="3" stroke-dasharray="10 10"/>
<circle cx="300" cy="278" r="93.5" stroke="#BABABA" stroke-width="3" stroke-dasharray="10 10"/>
<rect x="404.5" y="48.5" width="155" height="155" stroke="#BABABA" stroke-width="3" stroke-dasharray="10 10"/>
</svg>
