<svg width="600" height="400" viewBox="0 0 600 400" fill="none" xmlns="http://www.w3.org/2000/svg">
<rect width="600" height="400" fill="white"/>
<path d="M220.297 203.631L219.083 202.75L225.249 194.25L226.463 195.131L232.629 186.631L231.415 185.75L237.581 177.25L238.795 178.131L244.961 169.631L243.747 168.75L249.913 160.25L251.127 161.131L257.293 152.631L256.079 151.75L262.245 143.25L263.459 144.131L269.625 135.631L268.411 134.75L274.577 126.25L275.791 127.131L281.957 118.631L280.743 117.75L286.909 109.25L288.123 110.131L294.289 101.631L293.075 100.75L299.241 92.25L300.455 93.1309L302.896 89.7646L306.849 91.0498L307.312 89.624L317.289 92.8711L316.825 94.2969L326.802 97.543L327.267 96.1172L337.242 99.3643L336.779 100.79L346.756 104.036L347.22 102.61L357.196 105.857L356.732 107.283L366.71 110.53L367.173 109.104L377.15 112.351L376.687 113.776L386.663 117.023L387.126 115.598L397.104 118.845L396.64 120.271L406.617 123.517L407.081 122.091L417.057 125.338L416.594 126.764L426.57 130.011L427.034 128.585L437.012 131.831L436.548 133.257L440.5 134.543V138.707H442V149.214H440.5V159.721H442V170.227H440.5V180.733H442V191.24H440.5V201.747H442V212.253H440.5V222.76H442V233.267H440.5V243.773H442V254.279H440.5V264.786H442V275.293H440.5V279.457L436.548 280.743L437.012 282.17L427.034 285.416L426.57 283.989L416.594 287.236L417.057 288.663L407.081 291.91L406.617 290.483L396.64 293.729L397.104 295.156L387.126 298.403L386.663 296.977L376.687 300.224L377.15 301.65L367.173 304.896L366.71 303.47L356.732 306.717L357.196 308.144L347.22 311.391L346.756 309.964L336.779 313.21L337.242 314.637L327.267 317.884L326.802 316.457L316.825 319.703L317.289 321.13L307.312 324.377L306.849 322.95L302.896 324.236L300.455 320.869L299.241 321.75L293.075 313.25L294.289 312.369L288.123 303.869L286.909 304.75L280.743 296.25L281.957 295.369L275.791 286.869L274.577 287.75L268.411 279.25L269.625 278.369L263.459 269.869L262.245 270.75L256.079 262.25L257.293 261.369L251.127 252.869L249.913 253.75L243.747 245.25L244.961 244.369L238.795 235.869L237.581 236.75L231.415 228.25L232.629 227.369L226.463 218.869L225.249 219.75L219.083 211.25L220.297 210.369L217.853 207L220.297 203.631Z" fill="#5F2E00" fill-opacity="0.2" stroke="#BABABA" stroke-width="3" stroke-dasharray="10 10"/>
<rect x="90.1213" y="207.139" width="83.463" height="83.463" transform="rotate(-45 90.1213 207.139)" fill="#FFEA00" fill-opacity="0.2" stroke="#BABABA" stroke-width="3" stroke-dasharray="10 10"/>
<path d="M203.518 89.5497L202.122 89.003L202.121 89.0034L205.828 79.5367L205.827 79.5358L207.224 80.0829L210.929 70.6157L209.533 70.069L209.532 70.0694L213.239 60.6027L213.238 60.6018L214.635 61.148L218.34 51.6817L216.944 51.1342L216.943 51.1346L220.648 41.6682L220.649 41.6678L222.046 42.2141L225.751 32.7477L224.355 32.2002L224.354 32.2006L228.059 22.7342L228.06 22.7338L229.457 23.2801L230.004 21.8828L230.482 22.9537L231.852 22.3421L235.73 31.0272L234.361 31.6388L238.239 40.323L239.608 39.7113L243.487 48.3955L242.117 49.0072L245.995 57.6922L247.365 57.0806L251.243 65.7648L249.873 66.3764L253.752 75.0615L255.121 74.4498L259 83.134L257.63 83.7456L261.508 92.4307L262.878 91.8191L266.756 100.503L265.386 101.115L269.265 109.8L270.634 109.188L274.513 117.873L273.143 118.484L273.621 119.555L272.215 119.03L271.69 120.436L262.167 116.876L262.168 116.875L262.692 115.471L253.17 111.91L252.644 113.315L252.644 113.316L243.122 109.757L243.122 109.756L243.647 108.35L234.124 104.791L233.599 106.196L224.077 102.636L224.601 101.231L215.079 97.6715L214.553 99.0763L205.03 95.5172L205.031 95.5159L205.556 94.1116L202.222 92.8656L203.518 89.5497Z" fill="#77FF00" fill-opacity="0.2" stroke="#BABABA" stroke-width="3" stroke-dasharray="10 10"/>
<path d="M188.89 298.273L188.322 296.885L188.321 296.885L197.727 293.028L197.727 293.027L198.297 294.416L207.702 290.557L207.134 289.17L207.133 289.17L216.539 285.313L216.539 285.312L217.109 286.7L226.514 282.842L225.946 281.454L225.945 281.454L235.351 277.596L235.352 277.597L235.921 278.984L245.327 275.127L244.758 273.739L244.757 273.739L254.163 269.881L254.164 269.882L254.733 271.269L256.122 270.7L255.677 271.785L257.066 272.354L253.462 281.157L252.074 280.588L248.471 289.39L249.859 289.958L246.256 298.76L244.868 298.192L241.265 306.995L242.653 307.563L239.05 316.365L237.662 315.797L234.059 324.6L235.447 325.168L231.844 333.97L230.456 333.401L226.853 342.204L228.241 342.772L224.638 351.574L223.25 351.006L219.647 359.809L221.035 360.377L217.432 369.179L216.044 368.611L215.599 369.696L215.008 368.317L213.629 368.908L209.627 359.562L209.628 359.562L211.006 358.971L207.005 349.625L205.626 350.215L205.625 350.216L201.624 340.871L201.625 340.87L203.004 340.279L199.002 330.934L197.623 331.524L193.622 322.179L195.001 321.588L190.999 312.243L189.62 312.833L185.618 303.487L185.62 303.487L186.998 302.896L185.596 299.625L188.89 298.273Z" fill="#77FF00" fill-opacity="0.2" stroke="#BABABA" stroke-width="3" stroke-dasharray="10 10"/>
<path d="M445.892 364.26L446.669 365.542L446.669 365.543L455.361 360.27L455.362 360.27L454.584 358.987L463.276 353.716L464.054 354.997L464.054 354.998L472.746 349.725L472.747 349.726L471.969 348.443L480.661 343.171L481.44 344.453L481.44 344.454L490.131 339.182L490.132 339.181L489.354 337.898L498.046 332.627L498.825 333.908L498.824 333.909L507.516 328.637L507.516 328.637L506.739 327.354L508.022 326.575L506.885 326.288L507.253 324.834L498.032 322.5L497.664 323.954L488.444 321.621L488.812 320.167L479.592 317.834L479.224 319.288L470.003 316.954L470.371 315.5L461.151 313.167L460.783 314.621L451.562 312.287L451.93 310.833L442.709 308.5L442.341 309.954L433.12 307.621L433.488 306.167L424.268 303.833L423.9 305.287L414.679 302.954L415.047 301.5L405.827 299.166L405.459 300.621L404.322 300.333L405.08 301.628L403.785 302.386L408.923 311.159L408.924 311.158L410.218 310.4L415.357 319.172L414.063 319.931L414.062 319.932L419.2 328.703L419.201 328.703L420.495 327.945L425.633 336.717L424.339 337.475L429.477 346.247L430.772 345.49L435.91 354.262L434.616 355.02L439.753 363.793L439.755 363.792L441.048 363.034L442.847 366.106L445.892 364.26Z" fill="#77FF00" fill-opacity="0.2" stroke="#BABABA" stroke-width="3" stroke-dasharray="10 10"/>
<path d="M445.892 49.9184L446.669 48.6367L446.669 48.6358L455.361 53.9086L455.362 53.9084L454.584 55.1913L463.276 60.463L464.054 59.1813L464.054 59.1803L472.746 64.4532L472.747 64.4529L471.969 65.7356L480.661 71.0075L481.44 69.7256L481.44 69.7246L490.131 74.9965L490.132 74.9975L489.354 76.2802L498.046 81.5521L498.825 80.2701L498.824 80.2692L507.516 85.5411L507.516 85.542L506.739 86.8247L508.022 87.6031L506.885 87.8908L507.253 89.345L498.032 91.6785L497.664 90.2243L488.444 92.5576L488.812 94.0118L479.592 96.345L479.224 94.8909L470.003 97.2244L470.371 98.6785L461.151 101.012L460.783 99.5576L451.562 101.891L451.93 103.345L442.709 105.679L442.341 104.224L433.12 106.558L433.488 108.012L424.268 110.345L423.9 108.891L414.679 111.225L415.047 112.679L405.827 115.012L405.459 113.558L404.322 113.846L405.08 112.551L403.785 111.793L408.923 103.02L408.924 103.021L410.218 103.778L415.357 95.0062L414.063 94.2477L414.062 94.247L419.2 85.4753L419.201 85.476L420.495 86.2333L425.633 77.4616L424.339 76.7031L429.477 67.9314L430.772 68.6887L435.91 59.917L434.616 59.1586L439.753 50.3859L439.755 50.3866L441.048 51.1441L442.847 48.0729L445.892 49.9184Z" fill="#77FF00" fill-opacity="0.2" stroke="#BABABA" stroke-width="3" stroke-dasharray="10 10"/>
</svg>
