<svg width="600" height="400" viewBox="0 0 600 400" fill="none" xmlns="http://www.w3.org/2000/svg">
<rect width="600" height="400" fill="white"/>
<path d="M128.518 185.564L133.915 178.124H133.916L135.129 179.005L140.527 171.564L139.312 170.684L144.708 163.244H144.709L145.923 164.125L151.321 156.684L150.107 155.803H150.106L155.502 148.364H155.503L156.717 149.245L162.115 141.804L160.901 140.924H160.9L166.296 133.484H166.297L167.511 134.365L169.57 131.528L172.898 132.611L173.362 131.185L182.094 134.028L181.63 135.453L190.363 138.295L190.827 136.87L199.559 139.712L199.096 141.136L207.829 143.978L208.292 142.553L217.025 145.394L216.561 146.82L225.293 149.662L225.757 148.236L234.49 151.078L234.026 152.504L242.758 155.345L243.222 153.921L251.955 156.762L251.491 158.187L254.822 159.271V162.78H256.322V171.976H254.822V181.173H256.322V190.369H254.822V199.565H256.322V208.761H254.822V217.958H256.322V227.154H254.822V236.35H256.322V245.547H254.822V249.054L251.491 250.138L251.955 251.565L243.222 254.407L242.758 252.98L234.026 255.822L234.49 257.25L225.757 260.092L225.293 258.664L216.561 261.506L217.025 262.933L208.292 265.774L207.829 264.347L199.096 267.189L199.559 268.616L190.827 271.458L190.363 270.031L181.63 272.873L182.094 274.3L173.362 277.142L172.898 275.715L169.569 276.799L167.511 273.962L166.297 274.843L166.296 274.844L160.9 267.403L160.901 267.402L162.115 266.521L156.717 259.082L155.503 259.963L155.502 259.964L150.106 252.523L150.107 252.522L151.321 251.641L145.923 244.202L144.709 245.083L144.708 245.084L139.312 237.642L140.527 236.762L135.129 229.322L133.916 230.203L133.915 230.204L128.518 222.763L129.733 221.883L124.335 214.442L123.122 215.323L123.121 215.324L117.724 207.884L118.939 207.003L116.878 204.164L118.939 201.324L117.724 200.444L123.121 193.004H123.122L124.335 193.885L129.733 186.444L128.518 185.564Z" fill="#5F2E00" fill-opacity="0.2" stroke="#BABABA" stroke-width="3" stroke-dasharray="10 10"/>
<rect x="37.1213" y="204.25" width="51.0568" height="51.0568" transform="rotate(-45 37.1213 204.25)" fill="#FFEA00" fill-opacity="0.2" stroke="#BABABA" stroke-width="3" stroke-dasharray="10 10"/>
<path d="M112.913 113.622L116.001 105.73L116.002 105.729L117.399 106.276L120.487 98.384L119.09 97.8377L119.09 97.8381L122.179 89.9462L122.18 89.9458L123.576 90.4924L123.815 89.8821L124.173 90.6837L125.542 90.0721L129.179 98.2168L127.81 98.8284L131.447 106.973L132.817 106.362L136.453 114.505L135.084 115.117L138.721 123.262L140.09 122.65L143.728 130.795L142.358 131.406L145.995 139.55L147.364 138.939L151.002 147.083L149.632 147.695L149.99 148.497L149.376 148.267L148.851 149.671L148.851 149.673L140.912 146.705L140.913 146.704L141.438 145.299L133.5 142.332L132.975 143.737L132.974 143.738L125.037 140.769L125.562 139.365L117.624 136.396L117.099 137.802L109.161 134.834L109.685 133.429L107.143 132.48L108.132 129.952L106.736 129.405L106.735 129.405L109.825 121.513L109.824 121.512L111.222 122.06L114.31 114.168L112.913 113.622Z" fill="#77FF00" fill-opacity="0.2" stroke="#BABABA" stroke-width="3" stroke-dasharray="10 10"/>
<path d="M114.383 253.527L122.223 250.31L122.224 250.31L122.793 251.698L130.634 248.482L130.065 247.094L130.064 247.094L137.905 243.878L137.906 243.879L138.475 245.266L139.081 245.017L138.749 245.83L140.137 246.398L136.758 254.653L135.369 254.085L131.99 262.34L133.379 262.908L130 271.162L128.612 270.594L125.233 278.849L126.621 279.417L123.242 287.673L121.854 287.104L118.475 295.359L119.863 295.927L116.484 304.182L115.096 303.614L114.763 304.426L114.505 303.824L113.127 304.414L113.126 304.414L109.79 296.624L109.791 296.623L111.17 296.033L107.834 288.243L106.455 288.833L106.454 288.833L103.12 281.042L104.499 280.452L101.164 272.661L99.7845 273.252L96.4491 265.461L97.8275 264.87L96.7591 262.376L99.2703 261.345L98.7017 259.958L98.7008 259.958L106.542 256.742L106.543 256.741L107.112 258.13L114.953 254.914L114.383 253.527Z" fill="#77FF00" fill-opacity="0.2" stroke="#BABABA" stroke-width="3" stroke-dasharray="10 10"/>
<path d="M274.638 293.945L281.885 289.551L281.885 289.55L281.107 288.267L288.354 283.873L289.131 285.155L289.131 285.156L296.377 280.761L296.377 280.76L295.599 279.478L296.16 279.138L295.309 278.923L295.677 277.469L287.029 275.28L286.661 276.735L278.014 274.546L278.382 273.092L269.736 270.904L269.368 272.358L260.72 270.17L261.088 268.716L252.441 266.527L252.073 267.981L243.427 265.793L243.795 264.339L235.147 262.151L234.779 263.605L233.928 263.39L234.26 263.955L232.966 264.713L232.965 264.713L237.248 272.027L237.249 272.026L238.543 271.267L242.826 278.58L241.532 279.338L241.531 279.339L245.815 286.651L247.109 285.892L251.394 293.205L250.099 293.963L254.382 301.275L255.677 300.518L257.047 302.86L259.369 301.452L260.146 302.734L260.146 302.735L267.392 298.339L267.393 298.34L266.615 297.057L273.861 292.662L274.638 293.945Z" fill="#77FF00" fill-opacity="0.2" stroke="#BABABA" stroke-width="3" stroke-dasharray="10 10"/>
<path d="M274.638 114.493L281.885 118.887L281.885 118.888L281.107 120.171L288.354 124.565L289.131 123.283L289.131 123.282L296.377 127.677L296.377 127.678L295.599 128.96L296.16 129.3L295.309 129.515L295.677 130.969L287.029 133.158L286.661 131.703L278.014 133.892L278.382 135.346L269.736 137.534L269.368 136.08L260.72 138.268L261.088 139.722L252.441 141.911L252.073 140.456L243.427 142.645L243.795 144.099L235.147 146.287L234.779 144.833L233.928 145.048L234.26 144.483L232.966 143.725L232.965 143.725L237.248 136.411L237.249 136.412L238.543 137.171L242.826 129.858L241.532 129.1L241.531 129.099L245.815 121.787L247.109 122.546L251.394 115.233L250.099 114.475L254.382 107.163L255.677 107.92L257.047 105.578L259.369 106.986L260.146 105.704L260.146 105.703L267.392 110.099L267.393 110.098L266.615 111.381L273.861 115.776L274.638 114.493Z" fill="#77FF00" fill-opacity="0.2" stroke="#BABABA" stroke-width="3" stroke-dasharray="10 10"/>
</svg>
