<svg width="600" height="400" viewBox="0 0 600 400" fill="none" xmlns="http://www.w3.org/2000/svg">
<rect width="600" height="400" fill="white"/>
<rect x="31.5" y="39.5" width="304" height="157" stroke="#BABABA" stroke-width="3" stroke-dasharray="10 10"/>
<path d="M204.593 69.2783L213.03 75.3896L212.151 76.6045L220.589 82.7168L221.469 81.502V81.501L229.906 87.6123V87.6133L229.026 88.8281L237.464 94.9395L238.344 93.7246V93.7236L246.781 99.835V99.8359L245.901 101.051L249.235 103.465L247.963 107.371L249.388 107.835L246.165 117.724L244.739 117.26L241.517 127.148L242.942 127.612L239.72 137.502L238.294 137.037L235.071 146.925L236.497 147.39L233.274 157.278L231.849 156.813L228.625 166.702L230.052 167.167L226.829 177.056L225.402 176.591L224.128 180.5H220.003V182H209.573V180.5H199.144V182H188.715V180.5H178.285V182H167.856V180.5H157.427V182H146.997V180.5H142.872L141.598 176.591L140.17 177.056L136.947 167.167L138.375 166.702L135.151 156.813L133.725 157.278L130.502 147.39H130.503L131.929 146.925L128.706 137.037L127.279 137.502L124.057 127.612L125.483 127.148L122.261 117.26L120.834 117.724L117.611 107.835L119.037 107.371L117.764 103.465L121.099 101.051L120.219 99.8359L120.218 99.835L128.655 93.7236L128.656 93.7246L129.536 94.9395L137.974 88.8281L137.094 87.6133L137.093 87.6123L145.53 81.501L145.531 81.502L146.411 82.7168L154.849 76.6045L153.969 75.3896L162.406 69.2783L163.286 70.4932L171.724 64.3818L170.844 63.167L179.281 57.0557L180.161 58.2705L183.5 55.8516L186.839 58.2705L187.718 57.0557L196.155 63.167H196.156L195.276 64.3818L203.714 70.4932L204.593 69.2783Z" stroke="#BABABA" stroke-width="3" stroke-dasharray="10 10"/>
<circle cx="455.5" cy="261.5" r="117" stroke="#BABABA" stroke-width="3" stroke-dasharray="10 10"/>
<rect x="387.5" y="193.5" width="136" height="136" stroke="#BABABA" stroke-width="3" stroke-dasharray="10 10"/>
</svg>
