<svg width="600" height="400" viewBox="0 0 600 400" fill="none" xmlns="http://www.w3.org/2000/svg">
<rect width="600" height="400" fill="white"/>
<path d="M437.687 140.523L446.062 146.615V146.616L445.18 147.829L453.555 153.922L454.438 152.709V152.708L462.812 158.8V158.801L461.93 160.014L465.236 162.42L463.974 166.312L465.399 166.775L462.201 176.634L460.774 176.171L457.576 186.028L459.002 186.49L455.803 196.348L454.377 195.886L451.178 205.743L452.604 206.206L449.405 216.064L447.979 215.602L444.78 225.459L446.206 225.921L443.007 235.778L441.581 235.316L438.382 245.174L439.809 245.637L436.609 255.495L435.183 255.032L431.984 264.89L433.41 265.352L430.211 275.209L428.785 274.747L425.586 284.604L427.013 285.067L423.813 294.925L422.388 294.462L419.188 304.32L420.614 304.782L417.415 314.64L415.989 314.178L412.79 324.035L414.217 324.498L411.018 334.354L409.592 333.893L406.393 343.751L407.818 344.213L404.619 354.07L403.193 353.608L401.931 357.5H397.845V359H387.492V357.5H377.141V359H366.788V357.5H356.437V359H346.084V357.5H335.732V359H325.38V357.5H315.028V359H304.676V357.5H294.324V359H283.972V357.5H273.62V359H263.268V357.5H252.916V359H242.563V357.5H232.212V359H221.859V357.5H211.508V359H201.155V357.5H197.069L195.807 353.608L194.38 354.07L191.181 344.213L192.607 343.751L189.408 333.893L187.981 334.354L184.782 324.498L186.21 324.035L183.011 314.178L181.584 314.64L178.385 304.782L179.812 304.32L176.612 294.462L175.186 294.925L171.986 285.067L173.414 284.604L170.215 274.747L168.788 275.209L165.589 265.352L167.016 264.89L163.817 255.032L162.39 255.495L159.19 245.637L160.618 245.174L157.419 235.316L155.992 235.778L152.793 225.921L154.22 225.459L151.021 215.602L149.594 216.064L146.396 206.206L147.822 205.743L144.623 195.886L143.196 196.348L139.997 186.49L141.424 186.028L138.226 176.171L136.798 176.634L133.6 166.775L135.026 166.312L133.763 162.42L137.07 160.014L136.188 158.801L136.187 158.8L144.562 152.708L144.562 152.709L145.445 153.922L153.82 147.829L152.938 146.616L152.937 146.615L161.312 140.523L162.195 141.737L170.57 135.645L169.688 134.432L169.687 134.431L178.062 128.338L178.062 128.339L178.945 129.552L187.32 123.46L186.438 122.247L186.437 122.246L194.812 116.153L194.812 116.154L195.695 117.367L204.07 111.275L203.188 110.062L203.187 110.062L211.562 103.969L211.562 103.97L212.445 105.183L220.82 99.0908L219.938 97.877L228.312 91.7842L228.312 91.7852L229.195 92.998L237.57 86.9053L236.688 85.6924L245.062 79.5996L245.062 79.6006L245.945 80.8135L254.32 74.7207L253.438 73.5078L261.812 67.415L261.812 67.416L262.695 68.6289L271.07 62.5361L270.188 61.3232L270.187 61.3223L278.562 55.2305L279.445 56.4443L287.82 50.3516L286.938 49.1387L286.937 49.1377L295.312 43.0459L296.195 44.2588L299.5 41.8545L302.805 44.2588L303.687 43.0459L312.062 49.1377V49.1387L311.18 50.3516L319.555 56.4443L320.437 55.2305L328.812 61.3223V61.3232L327.93 62.5361L336.305 68.6289L337.188 67.416V67.415L345.562 73.5078H345.562L344.68 74.7207L353.055 80.8135L353.938 79.6006V79.5996L362.312 85.6924H362.312L361.43 86.9053L369.805 92.998L370.688 91.7852V91.7842L379.062 97.877H379.062L378.18 99.0908L386.555 105.183L387.438 103.97V103.969L395.812 110.062V110.062L394.93 111.275L403.305 117.367L404.188 116.154V116.153L412.562 122.246V122.247L411.68 123.46L420.055 129.552L420.938 128.339V128.338L429.312 134.431V134.432L428.43 135.645L436.805 141.737L437.687 140.523Z" stroke="#BABABA" stroke-width="3" stroke-dasharray="10 10"/>
<path d="M300 43V200" stroke="#BABABA" stroke-width="3" stroke-dasharray="10 10"/>
<path d="M465 163L300 200" stroke="#BABABA" stroke-width="3" stroke-dasharray="10 10"/>
<path d="M402 357L300 200" stroke="#BABABA" stroke-width="3" stroke-dasharray="10 10"/>
<path d="M197 358L300 200" stroke="#BABABA" stroke-width="3" stroke-dasharray="10 10"/>
<path d="M135 163L300 200" stroke="#BABABA" stroke-width="3" stroke-dasharray="10 10"/>
</svg>
