<svg width="600" height="400" viewBox="0 0 600 400" fill="none" xmlns="http://www.w3.org/2000/svg">
<g clip-path="url(#clip0_3_414)">
<rect width="600" height="400" fill="white"/>
<rect x="42" y="30" width="519" height="342" fill="#FF7B00" fill-opacity="0.4"/>
<circle cx="300" cy="200" r="58.5" stroke="white" stroke-width="5"/>
<circle cx="299.5" cy="199.5" r="28" stroke="white" stroke-width="5"/>
<rect x="61.5" y="43.5" width="475" height="313" stroke="white" stroke-width="5"/>
<path d="M300 30.5V370.5" stroke="white" stroke-width="5"/>
<path d="M559 148L445 160V238.5L559 252" stroke="white" stroke-width="5"/>
<path d="M444 160C444 160 418.066 165.535 419.026 198.245C419.987 230.955 444 238 444 238" stroke="white" stroke-width="5"/>
<path d="M299 31V371" stroke="white" stroke-width="5"/>
<path d="M40 148.5L154 160.5V239L40 252.5" stroke="white" stroke-width="5"/>
<path d="M155 160.5C155 160.5 180.934 166.035 179.974 198.745C179.013 231.455 155 238.5 155 238.5" stroke="white" stroke-width="5"/>
</g>
<defs>
<clipPath id="clip0_3_414">
<rect width="600" height="400" fill="white"/>
</clipPath>
</defs>
</svg>
