<svg width="600" height="400" viewBox="0 0 600 400" fill="none" xmlns="http://www.w3.org/2000/svg">
<rect width="600" height="400" fill="white"/>
<path d="M92.0547 85.0781L92.9365 83.8643L100.812 89.5938L99.9297 90.8076L107.805 96.5371L108.687 95.3232L116.562 101.053L115.68 102.267L123.555 107.996L124.437 106.782L132.312 112.512L131.43 113.726L139.305 119.455L140.187 118.241L148.062 123.971L147.18 125.185L150.236 127.408L149.069 131.008L150.496 131.471L147.487 140.74L146.062 140.278L143.054 149.549L144.479 150.011L141.472 159.282L140.045 158.819L137.037 168.09L138.464 168.553L135.456 177.823L134.029 177.36L131.021 186.631L132.448 187.094L129.44 196.364L128.014 195.901L126.847 199.5H123.069V201H113.335V199.5H103.601V201H93.8672V199.5H84.1328V201H74.3994V199.5H64.665V201H54.9307V199.5H51.1533L49.9863 195.901L48.5596 196.364L45.5508 187.095L46.9785 186.631L43.9707 177.36L42.543 177.823L39.5352 168.553H39.5361L40.9629 168.09L37.9551 158.819L36.5283 159.282H36.5273L33.5195 150.011L34.9463 149.549L31.9385 140.278L30.5117 140.74L27.5029 131.471L28.9307 131.008L27.7627 127.408L30.8203 125.185L29.9375 123.971L37.8125 118.241L38.6953 119.455L46.5703 113.726L45.6875 112.512L53.5625 106.782L54.4453 107.996L62.3203 102.267L61.4375 101.053L69.3125 95.3232L70.1953 96.5371L78.0703 90.8076L77.1875 89.5938L85.0625 83.8643L85.9453 85.0781L89 82.8545L92.0547 85.0781Z" stroke="#BABABA" stroke-width="3" stroke-dasharray="10 10"/>
<rect x="193.5" y="56.5" width="91" height="91" stroke="#BABABA" stroke-width="3" stroke-dasharray="10 10"/>
<rect x="27.5" y="260.5" width="163" height="83" stroke="#BABABA" stroke-width="3" stroke-dasharray="10 10"/>
<circle cx="263" cy="236" r="51.5" stroke="#BABABA" stroke-width="3" stroke-dasharray="10 10"/>
</svg>
