<svg width="600" height="400" viewBox="0 0 600 400" fill="none" xmlns="http://www.w3.org/2000/svg">
<rect width="600" height="400" fill="white"/>
<rect x="190.5" y="250.5" width="91" height="91" stroke="#BABABA" stroke-width="3" stroke-dasharray="10 10"/>
<rect x="194.5" y="220.5" width="163" height="83" transform="rotate(-90 194.5 220.5)" stroke="#BABABA" stroke-width="3" stroke-dasharray="10 10"/>
<circle cx="96.5" cy="282.5" r="59" stroke="#BABABA" stroke-width="3" stroke-dasharray="10 10"/>
<path d="M161.285 166.036L166.428 174.679H166.429L165.14 175.445L166.362 177.5H163.857V179H153.571V177.5H143.286V179H133V177.5H122.714V179H112.429V177.5H102.143V179H91.8574V177.5H81.5713V179H71.2861V177.5H61V179H50.7139V177.5H40.4287V179H30.1426V177.5H27.6377L28.8604 175.445L27.5713 174.679L32.7139 166.036L34.0029 166.803L39.1465 158.16L37.8574 157.393L37.8564 157.392L43 148.75L44.2891 149.517L49.4316 140.874L48.1426 140.107L53.2852 131.463L53.2861 131.464L54.5752 132.231L59.7178 123.589L58.4287 122.821L58.4277 122.82L63.5713 114.179L64.8604 114.945L70.0029 106.303L68.7139 105.536L73.8564 96.8916L73.8574 96.8926L75.1465 97.6602L80.2891 89.0166L79 88.25L84.1426 79.6074L85.4316 80.374L90.5752 71.7314L89.2861 70.9639L89.2852 70.9629L94.4277 62.3203L94.4287 62.3213L95.7178 63.0889L97 60.9326L98.2822 63.0889L99.5713 62.3213V62.3203L104.714 70.9629V70.9639L103.425 71.7314L108.568 80.374L109.856 79.6074L115 88.25L113.711 89.0166L118.854 97.6602L120.143 96.8926V96.8916L125.285 105.536H125.286L123.997 106.303L129.14 114.945L130.428 114.179L135.571 122.82V122.821L134.282 123.589L139.425 132.231L140.714 131.464V131.463L145.856 140.107H145.857L144.568 140.874L149.711 149.517L151 148.75L156.143 157.392V157.393L154.854 158.16L159.997 166.803L161.285 166.036Z" stroke="#BABABA" stroke-width="3" stroke-dasharray="10 10"/>
</svg>
