<svg width="600" height="400" viewBox="0 0 600 400" fill="none" xmlns="http://www.w3.org/2000/svg">
<rect width="600" height="400" fill="white"/>
<rect x="195.5" y="26.5" width="91" height="91" stroke="#BABABA" stroke-width="3" stroke-dasharray="10 10"/>
<rect x="51.5" y="294.5" width="163" height="83" stroke="#BABABA" stroke-width="3" stroke-dasharray="10 10"/>
<circle cx="193.5" cy="205.5" r="59" stroke="#BABABA" stroke-width="3" stroke-dasharray="10 10"/>
<path d="M32.7148 70.9639L27.5723 62.3213H27.5713L28.8604 61.5547L27.6377 59.5H30.1426V58H40.4287V59.5H50.7139V58H61V59.5H71.2861V58H81.5713V59.5H91.8574V58H102.143V59.5L112.429 59.5V58H122.714V59.5H133V58H143.286V59.5H153.571V58H163.857L163.857 59.5H166.362L165.14 61.5547L166.429 62.3213L161.286 70.9639L159.997 70.1973L154.854 78.8398L156.143 79.6074L156.144 79.6084L151 88.25L149.711 87.4834L144.568 96.126L145.857 96.8926L140.715 105.537L140.714 105.536L139.425 104.769L134.282 113.411L135.571 114.179L135.572 114.18L130.429 122.821L129.14 122.055L123.997 130.697L125.286 131.464L120.144 140.108L120.143 140.107L118.854 139.34L113.711 147.983L115 148.75L109.857 157.393L108.568 156.626L103.425 165.269L104.714 166.036L104.715 166.037L99.5723 174.68L99.5713 174.679L98.2822 173.911L97 176.067L95.7178 173.911L94.4287 174.679V174.68L89.2861 166.037V166.036L90.5752 165.269L85.4316 156.626L84.1436 157.393L79 148.75L80.2891 147.983L75.1465 139.34L73.8574 140.107V140.108L68.7148 131.464H68.7139L70.0029 130.697L64.8604 122.055L63.5723 122.821L58.4287 114.18V114.179L59.7178 113.411L54.5752 104.769L53.2861 105.536V105.537L48.1436 96.8926H48.1426L49.4316 96.126L44.2891 87.4834L43 88.25L37.8574 79.6084V79.6074L39.1465 78.8398L34.0029 70.1973L32.7148 70.9639Z" stroke="#BABABA" stroke-width="3" stroke-dasharray="10 10"/>
</svg>
