<svg width="600" height="400" viewBox="0 0 600 400" fill="none" xmlns="http://www.w3.org/2000/svg">
<rect width="600" height="400" fill="white"/>
<rect x="43.5" y="132.5" width="134" height="134" stroke="#BABABA" stroke-width="3" stroke-dasharray="10 10"/>
<path d="M297.24 136.045L298.531 135.281L303.594 143.844L302.303 144.607L307.365 153.17L308.656 152.406L313.719 160.969L312.428 161.732L317.49 170.295L318.781 169.531L323.844 178.094L322.553 178.857L327.615 187.42L328.906 186.656L333.969 195.219L332.678 195.982L337.74 204.545L339.031 203.781L344.094 212.344L342.803 213.107L347.865 221.67L349.156 220.906L354.219 229.469L352.928 230.232L357.99 238.795L359.281 238.031L364.344 246.594L363.053 247.357L368.115 255.92L369.406 255.156L374.469 263.719L373.178 264.482L374.371 266.5H371.938V268H361.812V266.5H351.688V268H341.562V266.5H331.438V268H321.312V266.5H311.188V268H301.062V266.5H290.938V268H280.812V266.5H270.688V268H260.562V266.5H250.438V268H240.312V266.5H230.188V268H220.062V266.5H217.629L218.822 264.482L217.531 263.719L222.594 255.156L223.885 255.92L228.947 247.357L227.656 246.594L232.719 238.031L234.01 238.795L239.072 230.232L237.781 229.469L242.844 220.906L244.135 221.67L249.197 213.107L247.906 212.344L252.969 203.781L254.26 204.545L259.322 195.982L258.031 195.219L263.094 186.656L264.385 187.42L269.447 178.857L268.156 178.094L273.219 169.531L274.51 170.295L279.572 161.732L278.281 160.969L283.344 152.406L284.635 153.17L289.697 144.607L288.406 143.844L293.469 135.281L294.76 136.045L296 133.946L297.24 136.045Z" stroke="#BABABA" stroke-width="3" stroke-dasharray="10 10"/>
<path d="M507.499 147.353L516.5 153.894V153.895L515.618 155.107L524.618 161.648L525.5 160.436V160.435L534.5 166.976V166.977L533.618 168.189L542.618 174.731L543.5 173.518V173.517L552.5 180.058V180.059L551.618 181.272L555.236 183.902L553.854 188.158L555.28 188.62L551.843 199.204L550.417 198.742L546.979 209.325L548.405 209.788L544.967 220.372L543.541 219.909L540.104 230.493L541.529 230.956L538.092 241.539L536.666 241.077L533.229 251.661L534.654 252.123L531.217 262.707L529.791 262.245L528.409 266.5H523.937V268H512.812V266.5H501.687V268H490.562V266.5H479.438V268H468.313V266.5H457.188V268H446.063V266.5H441.591L440.209 262.245L438.782 262.707L435.345 252.123L436.771 251.661L433.334 241.077L431.907 241.539L428.47 230.956L429.896 230.493L426.459 219.909L425.032 220.372L421.594 209.788L423.021 209.325L419.583 198.742L418.156 199.204L414.719 188.62L416.146 188.158L414.763 183.902L418.382 181.272L417.5 180.059L417.499 180.058L426.499 173.517L426.5 173.518L427.382 174.731L436.382 168.189L435.5 166.977L435.499 166.976L444.499 160.435L444.5 160.436L445.382 161.648L454.382 155.107L453.5 153.895L453.499 153.894L462.5 147.353L463.382 148.566L472.382 142.025L471.5 140.812L480.5 134.271L481.382 135.484L485 132.854L488.618 135.484L489.499 134.271L498.499 140.812H498.5L497.618 142.025L506.618 148.566L507.499 147.353Z" stroke="#BABABA" stroke-width="3" stroke-dasharray="10 10"/>
</svg>
