<svg width="600" height="400" viewBox="0 0 600 400" fill="none" xmlns="http://www.w3.org/2000/svg">
<rect width="600" height="400" fill="white"/>
<rect x="412.5" y="76.5" width="142" height="142" stroke="#BABABA" stroke-width="3" stroke-dasharray="10 10"/>
<rect x="45.5" y="376.5" width="203" height="104" transform="rotate(-90 45.5 376.5)" stroke="#BABABA" stroke-width="3" stroke-dasharray="10 10"/>
<circle cx="313.5" cy="296.5" r="80" stroke="#BABABA" stroke-width="3" stroke-dasharray="10 10"/>
<path d="M358.541 159.417L363.514 167.805V167.806L362.224 168.57L363.367 170.5H361.027V172H351.083V170.5H341.139V172H331.194V170.5H321.25V172H311.306V170.5H301.361V172H291.417V170.5H281.473V172H271.527V170.5H261.583V172H251.639V170.5H241.694V172H231.75V170.5H221.806V172H211.861V170.5H201.917V172H191.973V170.5H189.633L190.776 168.57L189.486 167.806L189.485 167.805L194.458 159.417L195.749 160.182L200.721 151.793L199.431 151.027L204.402 142.639L205.693 143.403L210.665 135.015L209.375 134.25L214.347 125.86L214.348 125.861L215.638 126.626L220.609 118.237L219.319 117.473L219.318 117.472L224.291 109.082L224.292 109.083L225.582 109.849L230.555 101.459L229.264 100.694L234.235 92.3047L234.236 92.3057L235.526 93.0703L240.499 84.6816L239.208 83.917L244.181 75.5273L245.471 76.293L250.443 67.9033L249.152 67.1387L254.125 58.75L255.415 59.5146L260.388 51.126L259.098 50.3613L259.097 50.3604L264.068 41.9717L264.069 41.9727L265.359 42.7373L270.332 34.3486L269.042 33.583L269.041 33.582L274.014 25.1943L275.305 25.959L276.5 23.9414L277.695 25.959L278.985 25.1943L283.958 33.582V33.583L282.668 34.3486L287.641 42.7373L288.931 41.9727V41.9717L293.902 50.3604V50.3613L292.612 51.126L297.585 59.5146L298.875 58.75L303.847 67.1387L302.557 67.9033L307.529 76.293L308.818 75.5273L313.791 83.917H313.792L312.501 84.6816L317.474 93.0703L318.764 92.3057V92.3047L323.735 100.694H323.736L322.445 101.459L327.418 109.849L328.708 109.083V109.082L333.681 117.472V117.473L332.391 118.237L337.362 126.626L338.652 125.861V125.86L343.625 134.25L342.335 135.015L347.307 143.403L348.597 142.639L353.568 151.027H353.569L352.279 151.793L357.251 160.182L358.541 159.417Z" stroke="#BABABA" stroke-width="3" stroke-dasharray="10 10"/>
</svg>
