<svg width="600" height="400" viewBox="0 0 600 400" fill="none" xmlns="http://www.w3.org/2000/svg">
<rect width="600" height="400" fill="white"/>
<circle cx="486.5" cy="285.5" r="80" stroke="#BABABA" stroke-width="3" stroke-dasharray="10 10"/>
<path d="M409.555 113.194L416 120.25L414.893 121.262L421.337 128.317L422.444 127.306V127.305L428.889 134.36V134.361L427.781 135.373L434.226 142.429L435.333 141.417V141.416L441.777 148.472V148.473L440.67 149.483L441.599 150.5H440.167V152H430.5V150.5H420.833V152H411.167V150.5H401.5V152H391.833V150.5H382.167V152H372.5V150.5H362.833V152H353.167V150.5H343.5V152H333.833V150.5H324.167V152H314.5V150.5H304.833V152H295.167V150.5H285.5V152H275.833V150.5H266.167V152H256.5V150.5H246.833V152H237.167V150.5H227.5V152H217.833V150.5H216.401L217.33 149.483L216.223 148.473L216.222 148.472L222.666 141.416L222.667 141.417L223.774 142.429L230.219 135.373L229.111 134.361L229.11 134.36L235.555 127.305L235.556 127.306L236.663 128.317L243.107 121.262L242 120.25L248.444 113.194L249.552 114.206L255.996 107.15L254.889 106.139L261.333 99.083L262.44 100.095L268.886 93.0391L267.777 92.0273L274.222 84.9717L274.223 84.9727L275.33 85.9834L281.774 78.9287L280.667 77.917L280.666 77.916L287.11 70.8604L287.111 70.8613L288.219 71.873L294.663 64.8174L293.556 63.8057L293.555 63.8047L300 56.75L301.107 57.7617L307.552 50.7061L306.444 49.6943L312.889 42.6387L313.996 43.6504L320.44 36.5947L319.333 35.583L325.777 28.5273L326.886 29.5391L329 27.2236L331.114 29.5391L332.222 28.5273L338.666 35.583L337.56 36.5947L344.004 43.6504L345.11 42.6387L351.555 49.6943H351.556L350.448 50.7061L356.893 57.7617L358 56.75L364.444 63.8047V63.8057L363.337 64.8174L369.781 71.873L370.889 70.8613V70.8604L377.333 77.916V77.917L376.226 78.9287L382.67 85.9834L383.777 84.9727V84.9717L390.222 92.0273L389.114 93.0391L395.56 100.095L396.666 99.083L403.11 106.139H403.111L402.004 107.15L408.448 114.206L409.555 113.194Z" stroke="#BABABA" stroke-width="3" stroke-dasharray="10 10"/>
<path d="M204.965 193.612L214.091 194.571L213.935 196.063L217.413 196.428L218.141 199.85L219.608 199.538L221.515 208.513L220.049 208.826L221.957 217.801L223.424 217.489L225.331 226.465L223.865 226.776L225.772 235.751L227.238 235.439L229.147 244.415L227.679 244.727L229.588 253.703L231.054 253.39L232.963 262.366L231.495 262.678L233.403 271.653L234.87 271.341L236.778 280.317L235.311 280.628L237.219 289.604L238.685 289.291L240.593 298.267L239.127 298.579L239.854 302.001L236.825 303.75L237.575 305.049L229.628 309.637L228.878 308.338L220.932 312.926L221.682 314.225L213.735 318.813L212.985 317.514L205.039 322.102L205.789 323.401L197.842 327.989L197.092 326.69L189.145 331.278L189.895 332.577L181.948 337.165L181.198 335.866L173.252 340.454L174.002 341.753L166.056 346.341L165.306 345.042L157.359 349.63L158.109 350.929L150.163 355.517L149.413 354.218L146.383 355.967L143.783 353.626L142.779 354.74L135.959 348.6L136.964 347.486L130.145 341.346L129.141 342.461L122.322 336.32L123.326 335.206L116.508 329.066L115.503 330.182L108.684 324.04L109.688 322.927L102.868 316.786L101.865 317.901L95.0459 311.761L96.05 310.646L89.2308 304.507L88.2266 305.621L81.4073 299.482L82.4123 298.367L75.5931 292.228L74.5884 293.341L67.7696 287.202L68.7742 286.087L66.1735 283.746L67.5974 280.551L66.2268 279.94L69.9584 271.558L71.329 272.168L75.0615 263.785L73.6914 263.176L73.69 263.176L77.4225 254.793L77.4238 254.793L78.7939 255.403L82.5255 247.02L81.1554 246.411L81.1541 246.41L84.8865 238.027L84.8878 238.028L86.258 238.637L89.9901 230.256L88.6203 229.645L88.619 229.645L92.3519 221.263L93.7225 221.873L97.455 213.49L96.0843 212.88L96.083 212.879L99.8159 204.497L101.187 205.108L104.919 196.725L103.548 196.114L107.279 187.731L107.281 187.732L108.651 188.342L110.073 185.146L113.552 185.512L113.708 184.021L122.834 184.98L122.678 186.471L131.804 187.43L131.96 185.939L141.086 186.898L141.086 186.898L140.93 188.39L150.056 189.349L150.212 187.857L159.337 188.815L159.338 188.816L159.182 190.308L168.307 191.267L168.463 189.776L177.589 190.735L177.59 190.734L177.432 192.226L186.557 193.185L186.715 191.694L186.714 191.693L195.84 192.652L195.841 192.653L195.683 194.144L204.809 195.103L204.965 193.612Z" stroke="#BABABA" stroke-width="3" stroke-dasharray="10 10"/>
</svg>
