<svg width="600" height="400" viewBox="0 0 600 400" fill="none" xmlns="http://www.w3.org/2000/svg">
<rect width="600" height="400" fill="white"/>
<circle cx="128.5" cy="179.5" r="80" stroke="#BABABA" stroke-width="3" stroke-dasharray="10 10"/>
<path d="M381.541 338.417L386.514 346.805V346.806L385.224 347.57L386.367 349.5H384.027V351H374.083V349.5H364.139V351H354.194V349.5H344.25V351H334.306V349.5H324.361V351H314.417V349.5H304.473V351H294.527V349.5H284.583V351H274.639V349.5H264.694V351H254.75V349.5H244.806V351H234.861V349.5H224.917V351H214.973V349.5H212.633L213.776 347.57L212.486 346.806L212.485 346.805L217.458 338.417L218.749 339.182L223.721 330.793L222.431 330.027L227.402 321.639L228.693 322.403L233.665 314.015L232.375 313.25L237.347 304.86L237.348 304.861L238.638 305.626L243.609 297.237L242.319 296.473L242.318 296.472L247.291 288.082L247.292 288.083L248.582 288.849L253.555 280.459L252.264 279.694L257.235 271.305L257.236 271.306L258.526 272.07L263.499 263.682L262.208 262.917L267.181 254.527L268.471 255.293L273.443 246.903L272.152 246.139L277.125 237.75L278.415 238.515L283.388 230.126L282.098 229.361L282.097 229.36L287.068 220.972L287.069 220.973L288.359 221.737L293.332 213.349L292.042 212.583L292.041 212.582L297.014 204.194L298.305 204.959L299.5 202.941L300.695 204.959L301.985 204.194L306.958 212.582V212.583L305.668 213.349L310.641 221.737L311.931 220.973V220.972L316.902 229.36V229.361L315.612 230.126L320.585 238.515L321.875 237.75L326.847 246.139L325.557 246.903L330.529 255.293L331.818 254.527L336.791 262.917H336.792L335.501 263.682L340.474 272.07L341.764 271.306V271.305L346.735 279.694H346.736L345.445 280.459L350.418 288.849L351.708 288.083V288.082L356.681 296.472V296.473L355.391 297.237L360.362 305.626L361.652 304.861V304.86L366.625 313.25L365.335 314.015L370.307 322.403L371.597 321.639L376.568 330.027H376.569L375.279 330.793L380.251 339.182L381.541 338.417Z" stroke="#BABABA" stroke-width="3" stroke-dasharray="10 10"/>
<path d="M492.129 136.183L495.842 145.595L494.447 146.146L496.303 150.852L496.542 151.458L497.148 151.697L501.854 153.553L502.404 152.157L511.816 155.87H511.817L511.268 157.266L520.68 160.978L521.229 159.582L530.643 163.294V163.295L530.093 164.69L539.505 168.402L540.055 167.007L549.468 170.719L548.918 172.114L558.331 175.827L558.881 174.432V174.431L568.293 178.144L567.743 179.539L568.911 180L567.743 180.461L568.293 181.855L558.881 185.568L558.331 184.173L548.918 187.886L549.468 189.28L540.055 192.992L539.505 191.598L530.093 195.31L530.643 196.705L521.229 200.417L520.68 199.022L511.268 202.734L511.816 204.129L502.404 207.842L501.854 206.447L497.148 208.303L496.542 208.542L496.303 209.148L494.447 213.854L495.842 214.404L492.129 223.816L490.734 223.268L487.022 232.68L488.417 233.229L484.705 242.643L483.31 242.093L479.598 251.505L480.992 252.055L477.28 261.468L475.886 260.918L472.173 270.331L473.568 270.881L469.855 280.293L468.461 279.743L468 280.911L467.539 279.743L466.144 280.293L462.431 270.881L463.827 270.331L460.114 260.918L458.719 261.468L455.007 252.055L456.402 251.505L452.69 242.093L451.294 242.643L447.582 233.229L448.978 232.68L445.266 223.268L443.87 223.816L440.157 214.404L441.553 213.854L439.697 209.148L439.458 208.542L438.852 208.303L434.146 206.447L433.595 207.842L424.183 204.129L424.732 202.734L415.32 199.022L414.77 200.417L405.356 196.705H405.357L405.907 195.31L396.495 191.598L395.944 192.992L386.531 189.28L387.082 187.886L377.669 184.173L377.118 185.568L367.706 181.855L368.257 180.461L367.088 180L368.257 179.539L367.706 178.144L377.118 174.431L377.119 174.432L377.669 175.827L387.082 172.114L386.531 170.719L395.944 167.007L396.495 168.402L405.907 164.69L405.357 163.295L405.356 163.294L414.77 159.582L415.32 160.978L424.732 157.266L424.183 155.87L433.595 152.157L434.146 153.553L438.852 151.697L439.458 151.458L439.697 150.852L441.553 146.146L440.157 145.595L443.87 136.183L445.266 136.732L448.978 127.32L447.582 126.77L451.294 117.356L451.295 117.357L452.69 117.907L456.402 108.495L455.007 107.944L458.719 98.5312L460.114 99.082L463.827 89.6689L462.432 89.1191L462.431 89.1182L466.144 79.7061L467.539 80.2568L468 79.0879L468.461 80.2568L469.855 79.7061L473.568 89.1182V89.1191L472.173 89.6689L475.886 99.082L477.28 98.5312L480.992 107.944H480.993L479.598 108.495L483.31 117.907L484.705 117.357V117.356L488.417 126.77L487.022 127.32L490.734 136.732L492.129 136.183Z" stroke="#BABABA" stroke-width="3" stroke-dasharray="10 10"/>
</svg>
