<svg width="600" height="400" viewBox="0 0 600 400" fill="none" xmlns="http://www.w3.org/2000/svg">
<rect width="600" height="400" fill="white"/>
<rect x="49.5" y="87.5" width="225" height="225" stroke="#BABABA" stroke-width="3" stroke-dasharray="10 10"/>
<path d="M470.57 113.992L479.142 120.213H479.143L478.262 121.427L486.833 127.647L487.714 126.434V126.433L496.285 132.654H496.286L495.404 133.868L503.977 140.089L504.857 138.875V138.874L513.429 145.095V145.096L512.548 146.31L521.119 152.53L522 151.316V151.315L530.571 157.536V157.537L529.69 158.751L538.262 164.972L539.143 163.758V163.757L547.714 169.977V169.978L546.833 171.192L550.235 173.66L548.937 177.657L550.362 178.12L547.089 188.186L545.662 187.722L542.389 197.787L543.814 198.25L540.54 208.315L539.114 207.853L535.841 217.917L537.267 218.381L533.992 228.445L532.566 227.982L529.293 238.048L530.719 238.512L527.444 248.576L526.019 248.112L522.744 258.178L524.171 258.642L520.896 268.706L519.471 268.243L516.196 278.308L517.622 278.771L514.349 288.837L512.923 288.373L509.648 298.438L511.074 298.901L507.801 308.968L506.375 308.504L505.074 312.5H500.866V314H490.271V312.5H479.677V314H469.082V312.5H458.487V314H447.893V312.5H437.298V314H426.702V312.5H416.107V314H405.513V312.5H394.918V314H384.323V312.5H373.729V314H363.134V312.5H358.926L357.625 308.504L356.198 308.968L352.925 298.901L354.352 298.438L351.077 288.373L349.65 288.837L346.377 278.771L347.804 278.308L344.529 268.243L343.103 268.706L339.828 258.642L341.256 258.178L337.981 248.112L336.555 248.576L333.28 238.512L334.707 238.048L331.434 227.982L330.007 228.445L326.732 218.381L328.159 217.917L324.886 207.853L323.459 208.315L320.185 198.25L321.611 197.787L318.338 187.722L316.91 188.186L313.637 178.12L315.063 177.657L313.764 173.66L317.167 171.192L316.286 169.978L316.285 169.977L324.856 163.757L324.857 163.758L325.738 164.972L334.31 158.751L333.429 157.537L333.428 157.536L341.999 151.315L342 151.316L342.881 152.53L351.452 146.31L350.571 145.096L350.57 145.095L359.142 138.874L359.143 138.875L360.023 140.089L368.596 133.868L367.714 132.654L376.285 126.433L376.286 126.434L377.167 127.647L385.738 121.427L384.857 120.213L393.429 113.992L394.31 115.207L402.881 108.986L402 107.772L401.999 107.771L410.57 101.551L410.571 101.552L411.452 102.766L420.023 96.5449L419.143 95.3311L419.142 95.3301L427.714 89.1104L428.596 90.3242L432 87.8525L435.404 90.3242L436.285 89.1104L444.857 95.3301V95.3311L443.977 96.5449L452.548 102.766L453.429 101.552V101.551L462 107.771V107.772L461.119 108.986L469.69 115.207L470.57 113.992Z" stroke="#BABABA" stroke-width="3" stroke-dasharray="10 10"/>
</svg>
