<svg width="600" height="400" viewBox="0 0 600 400" fill="none" xmlns="http://www.w3.org/2000/svg">
<rect width="600" height="400" fill="white"/>
<g opacity="0.4">
<mask id="path-1-inside-1_5_101" fill="white">
<rect x="127" y="56" width="345" height="215" rx="6"/>
</mask>
<rect x="127" y="56" width="345" height="215" rx="6" fill="#75CFFF" stroke="black" stroke-width="20" mask="url(#path-1-inside-1_5_101)"/>
<path d="M141 70.5C138.5 72.4999 141 117 141 117C141 117 144 135 151 126C158 117 174.5 104 186.5 97.5C198.5 90.9999 327.5 70.5 327.5 70.5C327.5 70.5 143.5 68.5 141 70.5Z" fill="#81D3FF"/>
<path d="M229.5 261C229.5 261 424 252.5 438.5 228C453 203.5 462 78 462 78L462.5 262.5L229.5 261Z" fill="#51C2FF"/>
<rect x="146" y="269" width="24" height="7" rx="3.5" fill="black"/>
<rect x="411" y="269" width="24" height="7" rx="3.5" fill="black"/>
<rect x="439" y="269" width="24" height="7" rx="3.5" fill="black"/>
<path d="M325.5 271H277L275.828 286.5H326.933L325.5 271Z" fill="#2D2D2D"/>
<path d="M216 330.5C209 330.5 207 345 207 345C207 345 211.5 337 216 335C220.5 333 279.5 335 279.5 335L275.828 286.5L272.5 330.5H216Z" fill="black"/>
<path d="M385.5 330.5H331L326.933 286.5H275.828L279.5 335C279.5 335 220.5 333 216 335C211.5 337 207 345 207 345H396C396 345 394.5 330.5 385.5 330.5Z" fill="#1B1B1B"/>
</g>
</svg>
