<svg width="600" height="400" viewBox="0 0 600 400" fill="none" xmlns="http://www.w3.org/2000/svg">
<rect width="600" height="400" fill="white"/>
<g opacity="0.3">
<circle cx="300.232" cy="200.232" r="177.732" stroke="black" stroke-width="5"/>
<path d="M428.138 239.185H358.371L315.929 306.045L362.441 346.161L435.115 297.324L428.138 239.185Z" fill="black"/>
<path d="M285.116 61.8603L215.348 104.883L239.186 178.72H315.929L350.813 104.883L285.116 61.8603Z" fill="black"/>
<path d="M475.231 169.418L458.371 118.837L423.487 76.3951L411.278 104.883L452.557 172.325L475.231 169.418Z" fill="black"/>
<path d="M206.046 236.278L149.07 233.371V287.441L154.884 303.72L215.93 344.417L247.325 306.045L206.046 236.278Z" fill="black"/>
<path d="M126.977 172.325L167.093 104.883V86.2788L139.767 123.488L126.977 172.325Z" fill="black"/>
<path d="M285.116 61.8603L215.348 104.883M285.116 61.8603L350.813 104.883M285.116 61.8603L290.348 22.907M215.348 104.883L239.186 178.72M215.348 104.883H167.093M239.186 178.72H315.929M239.186 178.72L206.046 236.278M315.929 178.72L350.813 104.883M315.929 178.72L358.371 239.185M350.813 104.883H411.278M358.371 239.185H428.138L435.115 297.324L362.441 346.161M358.371 239.185L315.929 306.045M358.371 239.185L426.975 238.022L452.557 172.325M362.441 346.161L315.929 306.045M362.441 346.161L335.115 372.905M315.929 306.045H247.325M149.07 233.371L206.046 236.278M149.07 233.371V287.441L154.884 303.72L215.93 344.417M149.07 233.371L126.977 172.325M206.046 236.278L247.325 306.045M247.325 306.045L215.93 344.417M215.93 344.417L249.651 369.417M411.278 104.883L423.487 76.3951L458.371 118.837L475.231 169.418L452.557 172.325M411.278 104.883L452.557 172.325M167.093 104.883L126.977 172.325M167.093 104.883V86.2788L139.767 123.488L126.977 172.325" stroke="black" stroke-width="4"/>
</g>
</svg>
