<svg width="600" height="400" viewBox="0 0 600 400" fill="none" xmlns="http://www.w3.org/2000/svg">
<rect width="600" height="400" fill="white"/>
<g opacity="0.4">
<mask id="path-1-inside-1_5_137" fill="white">
<rect x="223.972" y="85.9778" width="156.431" height="285.514" rx="3"/>
</mask>
<rect x="223.972" y="85.9778" width="156.431" height="285.514" rx="3" stroke="black" stroke-width="8" mask="url(#path-1-inside-1_5_137)"/>
<mask id="path-2-inside-2_5_137" fill="white">
<rect x="242.569" y="46.5967" width="119.238" height="43.7569" rx="3"/>
</mask>
<rect x="242.569" y="46.5967" width="119.238" height="43.7569" rx="3" stroke="black" stroke-width="8" mask="url(#path-2-inside-2_5_137)"/>
<mask id="path-3-inside-3_5_137" fill="white">
<rect width="87.5138" height="22.9724" rx="3" transform="matrix(1 0 0 -1 257.884 50.9724)"/>
</mask>
<rect width="87.5138" height="22.9724" rx="3" transform="matrix(1 0 0 -1 257.884 50.9724)" stroke="black" stroke-width="8" mask="url(#path-3-inside-3_5_137)"/>
<mask id="path-4-inside-4_5_137" fill="white">
<rect width="33.9116" height="14.221" rx="3" transform="matrix(1 0 0 -1 233.818 112.232)"/>
</mask>
<rect width="33.9116" height="14.221" rx="3" transform="matrix(1 0 0 -1 233.818 112.232)" stroke="black" stroke-width="8" mask="url(#path-4-inside-4_5_137)"/>
<mask id="path-5-inside-5_5_137" fill="white">
<rect width="33.9116" height="14.221" rx="3" transform="matrix(1 0 0 -1 284.138 112.232)"/>
</mask>
<rect width="33.9116" height="14.221" rx="3" transform="matrix(1 0 0 -1 284.138 112.232)" stroke="black" stroke-width="8" mask="url(#path-5-inside-5_5_137)"/>
<mask id="path-6-inside-6_5_137" fill="white">
<rect width="33.9116" height="14.221" rx="3" transform="matrix(1 0 0 -1 334.458 112.232)"/>
</mask>
<rect width="33.9116" height="14.221" rx="3" transform="matrix(1 0 0 -1 334.458 112.232)" stroke="black" stroke-width="8" mask="url(#path-6-inside-6_5_137)"/>
<mask id="path-7-inside-7_5_137" fill="white">
<rect width="33.9116" height="14.221" rx="3" transform="matrix(1 0 0 -1 233.818 139.58)"/>
</mask>
<rect width="33.9116" height="14.221" rx="3" transform="matrix(1 0 0 -1 233.818 139.58)" stroke="black" stroke-width="8" mask="url(#path-7-inside-7_5_137)"/>
<mask id="path-8-inside-8_5_137" fill="white">
<rect width="33.9116" height="14.221" rx="3" transform="matrix(1 0 0 -1 284.138 139.58)"/>
</mask>
<rect width="33.9116" height="14.221" rx="3" transform="matrix(1 0 0 -1 284.138 139.58)" stroke="black" stroke-width="8" mask="url(#path-8-inside-8_5_137)"/>
<mask id="path-9-inside-9_5_137" fill="white">
<rect width="33.9116" height="14.221" rx="3" transform="matrix(1 0 0 -1 334.458 139.58)"/>
</mask>
<rect width="33.9116" height="14.221" rx="3" transform="matrix(1 0 0 -1 334.458 139.58)" stroke="black" stroke-width="8" mask="url(#path-9-inside-9_5_137)"/>
<mask id="path-10-inside-10_5_137" fill="white">
<rect width="33.9116" height="14.221" rx="3" transform="matrix(1 0 0 -1 233.818 166.928)"/>
</mask>
<rect width="33.9116" height="14.221" rx="3" transform="matrix(1 0 0 -1 233.818 166.928)" stroke="black" stroke-width="8" mask="url(#path-10-inside-10_5_137)"/>
<mask id="path-11-inside-11_5_137" fill="white">
<rect width="33.9116" height="14.221" rx="3" transform="matrix(1 0 0 -1 284.138 166.928)"/>
</mask>
<rect width="33.9116" height="14.221" rx="3" transform="matrix(1 0 0 -1 284.138 166.928)" stroke="black" stroke-width="8" mask="url(#path-11-inside-11_5_137)"/>
<mask id="path-12-inside-12_5_137" fill="white">
<rect width="33.9116" height="14.221" rx="3" transform="matrix(1 0 0 -1 334.458 166.928)"/>
</mask>
<rect width="33.9116" height="14.221" rx="3" transform="matrix(1 0 0 -1 334.458 166.928)" stroke="black" stroke-width="8" mask="url(#path-12-inside-12_5_137)"/>
<mask id="path-13-inside-13_5_137" fill="white">
<rect width="33.9116" height="14.221" rx="3" transform="matrix(1 0 0 -1 233.818 192.088)"/>
</mask>
<rect width="33.9116" height="14.221" rx="3" transform="matrix(1 0 0 -1 233.818 192.088)" stroke="black" stroke-width="8" mask="url(#path-13-inside-13_5_137)"/>
<mask id="path-14-inside-14_5_137" fill="white">
<rect width="33.9116" height="14.221" rx="3" transform="matrix(1 0 0 -1 284.138 192.088)"/>
</mask>
<rect width="33.9116" height="14.221" rx="3" transform="matrix(1 0 0 -1 284.138 192.088)" stroke="black" stroke-width="8" mask="url(#path-14-inside-14_5_137)"/>
<mask id="path-15-inside-15_5_137" fill="white">
<rect width="33.9116" height="14.221" rx="3" transform="matrix(1 0 0 -1 334.458 192.088)"/>
</mask>
<rect width="33.9116" height="14.221" rx="3" transform="matrix(1 0 0 -1 334.458 192.088)" stroke="black" stroke-width="8" mask="url(#path-15-inside-15_5_137)"/>
<mask id="path-16-inside-16_5_137" fill="white">
<rect width="33.9116" height="14.221" rx="3" transform="matrix(1 0 0 -1 233.818 218.343)"/>
</mask>
<rect width="33.9116" height="14.221" rx="3" transform="matrix(1 0 0 -1 233.818 218.343)" stroke="black" stroke-width="8" mask="url(#path-16-inside-16_5_137)"/>
<mask id="path-17-inside-17_5_137" fill="white">
<rect width="33.9116" height="14.221" rx="3" transform="matrix(1 0 0 -1 284.138 218.343)"/>
</mask>
<rect width="33.9116" height="14.221" rx="3" transform="matrix(1 0 0 -1 284.138 218.343)" stroke="black" stroke-width="8" mask="url(#path-17-inside-17_5_137)"/>
<mask id="path-18-inside-18_5_137" fill="white">
<rect width="33.9116" height="14.221" rx="3" transform="matrix(1 0 0 -1 334.458 218.343)"/>
</mask>
<rect width="33.9116" height="14.221" rx="3" transform="matrix(1 0 0 -1 334.458 218.343)" stroke="black" stroke-width="8" mask="url(#path-18-inside-18_5_137)"/>
<mask id="path-19-inside-19_5_137" fill="white">
<rect width="33.9116" height="14.221" rx="3" transform="matrix(1 0 0 -1 233.818 244.597)"/>
</mask>
<rect width="33.9116" height="14.221" rx="3" transform="matrix(1 0 0 -1 233.818 244.597)" stroke="black" stroke-width="8" mask="url(#path-19-inside-19_5_137)"/>
<mask id="path-20-inside-20_5_137" fill="white">
<rect width="33.9116" height="14.221" rx="3" transform="matrix(1 0 0 -1 284.138 244.597)"/>
</mask>
<rect width="33.9116" height="14.221" rx="3" transform="matrix(1 0 0 -1 284.138 244.597)" stroke="black" stroke-width="8" mask="url(#path-20-inside-20_5_137)"/>
<mask id="path-21-inside-21_5_137" fill="white">
<rect width="33.9116" height="14.221" rx="3" transform="matrix(1 0 0 -1 334.458 244.597)"/>
</mask>
<rect width="33.9116" height="14.221" rx="3" transform="matrix(1 0 0 -1 334.458 244.597)" stroke="black" stroke-width="8" mask="url(#path-21-inside-21_5_137)"/>
<mask id="path-22-inside-22_5_137" fill="white">
<rect width="33.9116" height="14.221" rx="3" transform="matrix(1 0 0 -1 234.912 271.945)"/>
</mask>
<rect width="33.9116" height="14.221" rx="3" transform="matrix(1 0 0 -1 234.912 271.945)" stroke="black" stroke-width="8" mask="url(#path-22-inside-22_5_137)"/>
<mask id="path-23-inside-23_5_137" fill="white">
<rect width="33.9116" height="14.221" rx="3" transform="matrix(1 0 0 -1 285.232 271.945)"/>
</mask>
<rect width="33.9116" height="14.221" rx="3" transform="matrix(1 0 0 -1 285.232 271.945)" stroke="black" stroke-width="8" mask="url(#path-23-inside-23_5_137)"/>
<mask id="path-24-inside-24_5_137" fill="white">
<rect width="33.9116" height="14.221" rx="3" transform="matrix(1 0 0 -1 335.553 271.945)"/>
</mask>
<rect width="33.9116" height="14.221" rx="3" transform="matrix(1 0 0 -1 335.553 271.945)" stroke="black" stroke-width="8" mask="url(#path-24-inside-24_5_137)"/>
<mask id="path-25-inside-25_5_137" fill="white">
<rect width="33.9116" height="14.221" rx="3" transform="matrix(1 0 0 -1 234.912 299.293)"/>
</mask>
<rect width="33.9116" height="14.221" rx="3" transform="matrix(1 0 0 -1 234.912 299.293)" stroke="black" stroke-width="8" mask="url(#path-25-inside-25_5_137)"/>
<mask id="path-26-inside-26_5_137" fill="white">
<rect width="33.9116" height="14.221" rx="3" transform="matrix(1 0 0 -1 285.232 299.293)"/>
</mask>
<rect width="33.9116" height="14.221" rx="3" transform="matrix(1 0 0 -1 285.232 299.293)" stroke="black" stroke-width="8" mask="url(#path-26-inside-26_5_137)"/>
<mask id="path-27-inside-27_5_137" fill="white">
<rect width="33.9116" height="14.221" rx="3" transform="matrix(1 0 0 -1 335.553 299.293)"/>
</mask>
<rect width="33.9116" height="14.221" rx="3" transform="matrix(1 0 0 -1 335.553 299.293)" stroke="black" stroke-width="8" mask="url(#path-27-inside-27_5_137)"/>
<mask id="path-28-inside-28_5_137" fill="white">
<rect width="33.9116" height="14.221" rx="3" transform="matrix(1 0 0 -1 233.818 325.547)"/>
</mask>
<rect width="33.9116" height="14.221" rx="3" transform="matrix(1 0 0 -1 233.818 325.547)" stroke="black" stroke-width="8" mask="url(#path-28-inside-28_5_137)"/>
<rect x="1.09392" y="-1.09392" width="195.812" height="2.18785" rx="1.09392" transform="matrix(1 0 0 -1 201 369.304)" stroke="black" stroke-width="2.18785"/>
<rect x="0.820442" y="-0.820442" width="1.64088" height="22.4254" rx="0.820442" transform="matrix(1 0 0 -1 300.547 367.663)" stroke="black" stroke-width="1.64088"/>
<rect x="1.3674" y="-1.3674" width="14.768" height="2.73481" rx="1.3674" transform="matrix(1 0 0 -1 254.602 67.9283)" stroke="black" stroke-width="2.73481"/>
<rect x="1.3674" y="-1.3674" width="14.768" height="2.73481" rx="1.3674" transform="matrix(1 0 0 -1 279.762 67.9283)" stroke="black" stroke-width="2.73481"/>
<rect x="1.3674" y="-1.3674" width="14.768" height="2.73481" rx="1.3674" transform="matrix(1 0 0 -1 307.11 67.9283)" stroke="black" stroke-width="2.73481"/>
<rect x="1.3674" y="-1.3674" width="14.768" height="2.73481" rx="1.3674" transform="matrix(1 0 0 -1 334.458 67.9283)" stroke="black" stroke-width="2.73481"/>
<rect x="1.09392" y="-1.09392" width="2.18785" height="6.56354" rx="1.09392" transform="matrix(1 0 0 -1 290.702 356.177)" stroke="black" stroke-width="2.18785"/>
<rect x="1.09392" y="-1.09392" width="2.18785" height="6.56354" rx="1.09392" transform="matrix(1 0 0 -1 309.298 356.177)" stroke="black" stroke-width="2.18785"/>
<mask id="path-37-inside-29_5_137" fill="white">
<rect width="33.9116" height="14.221" rx="3" transform="matrix(1 0 0 -1 284.138 325.547)"/>
</mask>
<rect width="33.9116" height="14.221" rx="3" transform="matrix(1 0 0 -1 284.138 325.547)" stroke="black" stroke-width="8" mask="url(#path-37-inside-29_5_137)"/>
<mask id="path-38-inside-30_5_137" fill="white">
<rect width="33.9116" height="14.221" rx="3" transform="matrix(1 0 0 -1 334.458 325.547)"/>
</mask>
<rect width="33.9116" height="14.221" rx="3" transform="matrix(1 0 0 -1 334.458 325.547)" stroke="black" stroke-width="8" mask="url(#path-38-inside-30_5_137)"/>
<mask id="path-39-inside-31_5_137" fill="white">
<rect x="239.287" y="335.392" width="125.801" height="36.0994" rx="3"/>
</mask>
<rect x="239.287" y="335.392" width="125.801" height="36.0994" rx="3" stroke="black" stroke-width="8" mask="url(#path-39-inside-31_5_137)"/>
</g>
</svg>
