<svg width="600" height="400" viewBox="0 0 600 400" fill="none" xmlns="http://www.w3.org/2000/svg">
<rect width="600" height="400" fill="white"/>
<g opacity="0.4">
<path d="M402.645 376.887V375.097V319H195.565V375.097V376.887H402.645Z" fill="#5174FF"/>
<path d="M421.145 376.887H448.597C448.597 376.887 451.014 360.528 457.548 353.016C465.283 344.125 485 340.484 485 340.484V319H421.145V375.097V376.887Z" fill="#5174FF"/>
<path d="M152 376.887H177.065V375.097V319H115V339.887C115 339.887 131.618 341.06 139.468 347.645C148.917 355.573 152 376.887 152 376.887Z" fill="#5174FF"/>
<path d="M360.274 111.323H340.581H254.645H237.936H195.565V112.516V319H402.645V112.516V111.323H360.274Z" fill="#B4DCFF"/>
<path d="M448.597 111.323H421.145V112.516V319H485V148.323C485 148.323 466.486 145.504 458.742 137.581C451.058 129.718 448.597 111.323 448.597 111.323Z" fill="#B4DCFF"/>
<path d="M177.065 111.323H152C152 111.323 148.235 129.541 140.065 136.984C132.321 144.038 115 146.532 115 146.532V319H177.065V112.516V111.323Z" fill="#B4DCFF"/>
<path d="M402.645 375.097H421.145V319V112.516H402.645V319V375.097Z" fill="#FFEA00"/>
<path d="M254.645 46.2742C254.645 46.2742 255.091 43.2556 256.436 42.0968C257.721 40.989 260.613 40.9032 260.613 40.9032H333.419C333.419 40.9032 337.237 41.1202 338.79 42.6936C340.189 44.1106 340.581 47.4677 340.581 47.4677V89.2419H360.274V33.1452C360.274 33.1452 359.677 30.1613 356.694 26.5806C353.71 23 350.726 23 350.726 23H248.081C248.081 23 245.694 23 242.113 26.5806C238.532 30.1613 237.936 33.7419 237.936 33.7419V89.2419H254.645V46.2742Z" fill="#FFEA00"/>
<path d="M177.065 319V375.097H195.565V319V112.516H177.065V319Z" fill="#FFEA00"/>
<path d="M152 111.323H177.065V112.516M152 111.323C152 111.323 148.235 129.541 140.065 136.984C132.321 144.038 115 146.532 115 146.532M152 111.323H120.425C120.425 111.323 117.903 111.988 116.79 113.113C115.542 114.374 115 117.29 115 117.29V146.532M115 146.532V319M152 376.887H177.065V375.097M152 376.887H119.774C119.774 376.887 117.203 376.29 116.194 375.097C115.383 374.139 115 372.113 115 372.113V339.887M152 376.887C152 376.887 148.917 355.573 139.468 347.645C131.618 341.06 115 339.887 115 339.887M115 339.887V319M115 319H177.065M177.065 319V375.097M177.065 319V112.516M177.065 375.097H195.565M340.581 89.2419V47.4677C340.581 47.4677 340.189 44.1106 338.79 42.6936C337.237 41.1202 333.419 40.9032 333.419 40.9032H260.613C260.613 40.9032 257.721 40.989 256.436 42.0968C255.091 43.2556 254.645 46.2742 254.645 46.2742V89.2419M340.581 89.2419H360.274M340.581 89.2419V111.323M360.274 89.2419V33.1452C360.274 33.1452 359.677 30.1613 356.694 26.5806C353.71 23 350.726 23 350.726 23H248.081C248.081 23 245.694 23 242.113 26.5806C238.532 30.1613 237.936 33.7419 237.936 33.7419V89.2419M360.274 89.2419V111.323M360.274 111.323H340.581M360.274 111.323H402.645V112.516M340.581 111.323H254.645M254.645 111.323V89.2419M254.645 111.323H237.936M254.645 89.2419H237.936M237.936 89.2419V111.323M237.936 111.323H195.565V112.516M195.565 112.516V319M195.565 112.516H177.065M195.565 319V375.097M195.565 319H402.645M448.597 111.323H421.145V112.516M448.597 111.323C448.597 111.323 451.058 129.718 458.742 137.581C466.486 145.504 485 148.323 485 148.323M448.597 111.323H478.436C478.436 111.323 481.802 111.705 483.21 113.113C484.618 114.521 485 117.887 485 117.887V148.323M448.597 376.887H421.145V375.097M448.597 376.887H478.436C478.436 376.887 481.802 376.505 483.21 375.097C484.618 373.689 485 370.323 485 370.323V340.484M448.597 376.887C448.597 376.887 451.014 360.528 457.548 353.016C465.283 344.125 485 340.484 485 340.484M402.645 375.097V376.887H195.565V375.097M402.645 375.097H421.145M402.645 375.097V319M485 148.323V319M485 340.484V319M421.145 112.516H402.645M421.145 112.516V319M421.145 375.097V319M402.645 319V112.516M421.145 319H485" stroke="black"/>
<path d="M382.952 126.839H211.677V152.5H382.952V126.839Z" fill="white" stroke="black"/>
</g>
</svg>
