<svg width="600" height="400" viewBox="0 0 600 400" fill="none" xmlns="http://www.w3.org/2000/svg">
<rect width="600" height="400" fill="white"/>
<rect x="330.5" y="36.5" width="134" height="134" stroke="#BABABA" stroke-width="3" stroke-dasharray="10 10"/>
<path d="M163.749 50.7559L172.449 57.0586H172.45L171.57 58.2734L180.27 64.5762L181.15 63.3613V63.3604L189.849 69.6631H189.85L188.97 70.8779L197.67 77.1807L198.55 75.9658V75.9648L207.25 82.2676V82.2686L206.37 83.4834L215.07 89.7852L215.949 88.5703L224.649 94.873L223.77 96.0879L227.235 98.5977L225.912 102.658L227.338 103.122L224.015 113.319L222.589 112.856L219.266 123.054L220.691 123.518L217.368 133.715L215.943 133.251L212.62 143.448L214.046 143.913L210.722 154.11L209.297 153.646L205.974 163.844L207.399 164.309L204.076 174.505L202.65 174.041L199.327 184.239L200.753 184.703L197.43 194.9L196.004 194.437L194.68 198.5H190.392V200H179.639V198.5H168.885V200H158.131V198.5H147.377V200H136.623V198.5H125.869V200H115.115V198.5H104.361V200H93.6084V198.5H89.3203L87.9961 194.437L86.5693 194.9L83.2461 184.703L84.6729 184.239L81.3496 174.041L79.9229 174.505L76.5996 164.309L78.0264 163.844L74.7031 153.646L73.2773 154.11L69.9531 143.913L71.3799 143.448L68.0566 133.251L66.6309 133.715L63.3076 123.518L64.7344 123.054L61.4111 112.856L59.9844 113.319L56.6611 103.122L58.0879 102.658L56.7637 98.5977L60.2305 96.0879L59.3496 94.873L68.0498 88.5703L68.9297 89.7852L77.6299 83.4834L76.75 82.2686L76.749 82.2676L85.4492 75.9648L85.4502 75.9658L86.3301 77.1807L95.0303 70.8779L94.1504 69.6631L102.849 63.3604L102.85 63.3613L103.73 64.5762L112.43 58.2734L111.55 57.0586L120.25 50.7559L121.13 51.9707L129.83 45.668L128.95 44.4541L128.949 44.4531L137.649 38.1504L137.65 38.1514L138.53 39.3662L142 36.8516L145.47 39.3662L146.35 38.1514V38.1504L155.05 44.4531V44.4541L154.17 45.668L162.87 51.9707L163.749 50.7559Z" stroke="#BABABA" stroke-width="3" stroke-dasharray="10 10"/>
<rect x="40.5" y="244.5" width="203" height="104" stroke="#BABABA" stroke-width="3" stroke-dasharray="10 10"/>
<circle cx="436.5" cy="296.5" r="80" stroke="#BABABA" stroke-width="3" stroke-dasharray="10 10"/>
</svg>
