<svg width="600" height="400" viewBox="0 0 600 400" fill="none" xmlns="http://www.w3.org/2000/svg">
<rect width="600" height="400" fill="white"/>
<rect x="170.5" y="89.5" width="93" height="93" stroke="#BABABA" stroke-width="3" stroke-dasharray="10 10"/>
<rect x="23.5" y="222.5" width="141" height="72" stroke="#BABABA" stroke-width="3" stroke-dasharray="10 10"/>
<path d="M118.354 140.417L123.562 149.25L122.271 150.012L127.479 158.845L128.771 158.083V158.082L133.979 166.917H133.979L132.688 167.679L137.896 176.512L139.188 175.75L144.396 184.582V184.583L143.104 185.345L144.374 187.5H141.792V189H131.375V187.5H120.958V189H110.542V187.5H100.125V189H89.708V187.5H79.292V189H68.875V187.5H58.458V189H48.042V187.5H37.625V189H27.208V187.5H24.626L25.8965 185.345L24.6045 184.583L24.6035 184.582L29.8125 175.75L31.1045 176.512L36.3125 167.679L35.0205 166.917L40.2285 158.082L40.2295 158.083L41.5215 158.845L46.7295 150.012L45.4375 149.25L50.6455 140.417L51.9375 141.179L57.1465 132.345L55.8545 131.583L55.8535 131.582L61.0625 122.75L62.3545 123.512L67.5625 114.679L66.2705 113.917L71.4785 105.082L71.4795 105.083L72.7715 105.845L77.9795 97.0117L76.6875 96.25L81.8955 87.417L83.1875 88.1787L84.5 85.9521L85.8125 88.1787L87.1035 87.417L92.3125 96.25L91.0205 97.0117L96.2285 105.845L97.5205 105.083V105.082L102.729 113.917H102.729L101.438 114.679L106.646 123.512L107.938 122.75L113.146 131.582V131.583L111.854 132.345L117.062 141.179L118.354 140.417Z" stroke="#BABABA" stroke-width="3" stroke-dasharray="10 10"/>
<path d="M273.53 225.923L281.094 231.461V231.462L280.207 232.672L287.77 238.211L288.656 237V236.999L296.219 242.538V242.539L295.332 243.749L298.239 245.878L297.128 249.328L298.555 249.788L295.666 258.749L294.239 258.29L291.351 267.252L292.777 267.711L289.89 276.673L288.462 276.213L285.573 285.175L287 285.634L284.111 294.596L282.685 294.136L279.796 303.098L281.224 303.558L278.334 312.519L276.907 312.059L275.799 315.5H272.217V317H262.869V315.5H253.521V317H244.174V315.5H234.826V317H225.479V315.5H216.131V317H206.783V315.5H203.201L202.093 312.059L200.665 312.519L197.775 303.558L199.204 303.098L196.315 294.136L194.888 294.596L191.999 285.634L193.427 285.175L190.538 276.213L189.109 276.673L186.222 267.711L187.649 267.252L184.761 258.29L183.333 258.749L180.444 249.788L181.872 249.328L180.76 245.878L183.668 243.749L182.781 242.539L182.78 242.538L190.343 236.999L190.344 237L191.23 238.211L198.793 232.672L197.906 231.462L197.905 231.461L205.469 225.923L206.355 227.134L213.918 221.595L213.031 220.385L213.03 220.384L220.593 214.846L220.594 214.847L221.48 216.057L229.043 210.518L228.156 209.308L235.718 203.769L235.719 203.77L236.605 204.979L239.5 202.859L242.395 204.979L243.281 203.77V203.769L250.843 209.308H250.844L249.957 210.518L257.52 216.057L258.406 214.847V214.846L265.969 220.384V220.385L265.082 221.595L272.645 227.134L273.53 225.923Z" stroke="#BABABA" stroke-width="3" stroke-dasharray="10 10"/>
</svg>
