<svg width="600" height="400" viewBox="0 0 600 400" fill="none" xmlns="http://www.w3.org/2000/svg">
<rect width="600" height="400" fill="white"/>
<path d="M469.755 149.623L478.055 155.653H478.056L477.174 156.867L480.442 159.241L479.194 163.084L480.62 163.548L477.45 173.305L476.023 172.842L472.854 182.599L474.279 183.062L471.109 192.819L469.683 192.356L466.513 202.113L467.938 202.576L464.769 212.334L463.342 211.871L460.172 221.628L461.599 222.092L458.428 231.85L457.001 231.386L453.831 241.143L455.258 241.606L452.087 251.364L450.66 250.9L447.49 260.658L448.917 261.121L445.746 270.879L444.32 270.415L441.149 280.173L442.576 280.636L439.405 290.394L437.979 289.93L434.809 299.688L436.235 300.15L433.064 309.907L431.639 309.444L428.468 319.202L429.895 319.666L426.725 329.423L425.298 328.96L422.127 338.717L423.554 339.181L420.384 348.938L418.957 348.475L415.786 358.231L417.213 358.695L414.043 368.452L412.616 367.989L411.368 371.831H407.328V373.331H397.068V371.831H386.809V373.331H376.549V371.831H366.29V373.331H356.03V371.831H345.771V373.331H335.511V371.831H325.252V373.331H314.992V371.831H304.732V373.331H294.473V371.831H284.214V373.331H273.954V371.831H263.694V373.331H253.435V371.831H243.176V373.331H232.916V371.831H222.656V373.331H212.396V371.831H202.138V373.331H191.878V371.831H187.838L186.59 367.989L185.162 368.452L181.992 358.694L183.419 358.231L180.249 348.475L178.821 348.938L175.651 339.18L177.078 338.717L173.908 328.959L172.48 329.423L169.311 319.666L170.737 319.202L167.567 309.444L166.141 309.907L162.97 300.15H162.971L164.396 299.688L161.227 289.93L159.8 290.393L156.629 280.636L158.057 280.173L154.886 270.415L153.459 270.878L150.288 261.121L151.716 260.658L148.545 250.9L147.118 251.363L143.947 241.606L145.375 241.143L142.204 231.386L140.777 231.849L137.606 222.092L139.034 221.628L135.863 211.871L134.438 212.334H134.437L131.267 202.576L132.693 202.113L129.522 192.356L128.097 192.819H128.096L124.926 183.062L126.353 182.599L123.183 172.841L121.755 173.305L118.585 163.547L120.012 163.084L118.763 159.241L122.032 156.867L121.15 155.653L129.45 149.623L130.332 150.837L138.632 144.807L137.75 143.593L146.05 137.562L146.051 137.562L146.933 138.775L155.232 132.745L154.351 131.532L154.35 131.531L162.649 125.501L162.65 125.502L163.532 126.715L171.833 120.685L170.951 119.471L179.251 113.44L180.133 114.654L188.433 108.624L187.551 107.41L195.851 101.379L195.852 101.38L196.732 102.594L205.033 96.5635L204.151 95.3496L204.15 95.3486L212.451 89.3193L213.333 90.5322L221.633 84.502L220.752 83.2891L220.751 83.2881L229.051 77.2578L229.052 77.2588L229.934 78.4717L238.233 72.4414L237.352 71.2275L245.651 65.1963L245.652 65.1973L246.533 66.4111L254.834 60.3809L253.952 59.167L262.252 53.1367L263.134 54.3506L271.434 48.3203L270.553 47.1064L270.552 47.1055L278.852 41.0752L278.853 41.0762L279.734 42.2891L288.034 36.2588L287.152 35.0459L287.151 35.0449L295.452 29.0146L295.453 29.0156L296.334 30.2285L299.603 27.8535L302.871 30.2285L303.753 29.0156V29.0146L312.053 35.0449V35.0459L311.171 36.2588L319.472 42.2891L320.353 41.0762L328.652 47.1064H328.653L327.771 48.3203L336.071 54.3506L336.952 53.1367L345.253 59.167L344.372 60.3809L352.672 66.4111L353.553 65.1973L361.853 71.2275H361.854L360.972 72.4414L369.272 78.4717L370.154 77.2588V77.2578L378.454 83.2881V83.2891L377.572 84.502L385.872 90.5322L386.754 89.3193V89.3184L395.054 95.3496H395.055L394.173 96.5635L402.473 102.594L403.354 101.38L411.653 107.41H411.654L410.772 108.624L419.073 114.654L419.954 113.44L428.254 119.471L427.373 120.685L435.673 126.715L436.555 125.502V125.501L444.855 131.531V131.532L443.974 132.745L452.273 138.775L453.155 137.562V137.562L461.455 143.592V143.593L460.573 144.807L468.874 150.837L469.755 149.623Z" stroke="#BABABA" stroke-width="3" stroke-dasharray="10 10"/>
</svg>
