<svg width="600" height="400" viewBox="0 0 600 400" fill="none" xmlns="http://www.w3.org/2000/svg">
<rect width="600" height="400" fill="white"/>
<path d="M244.796 137.666L253.016 143.634V143.635L252.134 144.849L260.353 150.816L261.234 149.603V149.602L269.453 155.57V155.571L268.571 156.785L276.79 162.753L277.672 161.539V161.538L285.891 167.507V167.508L285.009 168.721L288.235 171.064L287.004 174.856L288.43 175.319L285.291 184.977L283.864 184.513L280.726 194.17L282.151 194.634L279.012 204.289L277.586 203.826L274.446 213.483L275.873 213.947L272.733 223.603L271.308 223.14L268.168 232.797L269.594 233.26L266.455 242.917L265.029 242.454L261.89 252.11L263.315 252.573L260.177 262.23L258.75 261.768L255.611 271.424L257.037 271.888L253.897 281.544L252.472 281.081L249.332 290.737L250.759 291.201L247.619 300.857L246.193 300.395L243.054 310.051L244.479 310.514L241.341 320.172L239.915 319.708L238.682 323.5H234.692V325H224.533V323.5H214.374V325H204.215V323.5H194.057V325H183.897V323.5H173.738V325H163.579V323.5H153.421V325H143.262V323.5H133.103V325H122.943V323.5H112.785V325H102.626V323.5H92.4668V325H82.3076V323.5H78.3184L77.085 319.708L75.6582 320.172L72.5195 310.514L73.9463 310.051L70.8066 300.395L69.3799 300.857L66.2402 291.201L67.668 290.737L64.5283 281.081L63.1016 281.544L59.9619 271.888L61.3887 271.424L58.25 261.768L56.8223 262.23L53.6836 252.573L55.1104 252.11L51.9707 242.454L50.5439 242.917L47.4053 233.26L48.832 232.797L45.6924 223.14L44.2656 223.603L41.126 213.947L42.5537 213.483L39.4141 203.826L37.9873 204.289L34.8477 194.634L36.2744 194.17L33.1357 184.513L31.708 184.977L28.5693 175.319L29.9961 174.856L28.7637 171.064L31.9912 168.721L31.1094 167.508L31.1084 167.507L39.3271 161.538L39.3281 161.539L40.21 162.753L48.4287 156.785L47.5469 155.571L47.5459 155.57L55.7646 149.602L55.7656 149.603L56.6475 150.816L64.8662 144.849L63.9844 143.635L63.9834 143.634L72.2031 137.666L73.085 138.88L81.3037 132.912L80.4219 131.698L80.4209 131.697L88.6406 125.729L89.5225 126.943L97.7412 120.976L96.8594 119.762L96.8584 119.761L105.078 113.793L105.96 115.007L114.179 109.039L113.297 107.825L113.296 107.824L121.515 101.856L121.516 101.857L122.397 103.07L130.616 97.1025L129.734 95.8887L137.952 89.9199L137.953 89.9209L138.835 91.1348L147.054 85.166L146.172 83.9521L154.39 77.9834L154.391 77.9844L155.272 79.1982L158.5 76.8535L161.728 79.1982L162.609 77.9844V77.9834L170.827 83.9521H170.828L169.946 85.166L178.165 91.1348L179.047 89.9209V89.9199L187.265 95.8887H187.266L186.384 97.1025L194.603 103.07L195.484 101.857V101.856L203.703 107.824V107.825L202.821 109.039L211.04 115.007L211.921 113.793L220.141 119.761V119.762L219.259 120.976L227.478 126.943L228.358 125.729L236.578 131.697V131.698L235.696 132.912L243.915 138.88L244.796 137.666Z" stroke="#BABABA" stroke-width="3" stroke-dasharray="10 10"/>
<circle cx="441" cy="200" r="123.5" stroke="#BABABA" stroke-width="3"/>
</svg>
