<svg width="600" height="400" viewBox="0 0 600 400" fill="none" xmlns="http://www.w3.org/2000/svg">
<rect width="600" height="400" fill="white"/>
<path d="M242.718 270.833L247.656 279.166V279.167L246.366 279.932L251.304 288.265L252.594 287.5L257.53 295.833H257.531L256.241 296.598L257.368 298.5H255.062V300H245.188V298.5H235.312V300H225.438V298.5H215.562V300H205.688V298.5H195.812V300H185.938V298.5H176.062V300H166.188V298.5H156.312V300H146.438V298.5H136.562V300H126.688V298.5H116.812V300H106.938V298.5H97.0625V300H87.1875V298.5H77.3125V300H67.4375V298.5H57.5625V300H47.6875V298.5H37.8125V300H27.9375V298.5H25.6318L26.7588 296.598L25.4688 295.833L30.4062 287.5L31.6963 288.265L36.6338 279.932L35.3438 279.167L35.3428 279.166L40.2812 270.833L41.5713 271.598L46.5088 263.265L45.2188 262.5L50.1553 254.166L50.1562 254.167L51.4463 254.932L56.3838 246.598L55.0938 245.833L60.0312 237.5L61.3213 238.265L66.2588 229.932L64.9688 229.167L64.9678 229.166L69.9062 220.833L71.1963 221.598L76.1338 213.265L74.8438 212.5L79.7803 204.166L79.7812 204.167L81.0713 204.932L86.0088 196.598L84.7188 195.833L89.6562 187.5L90.9463 188.265L95.8838 179.932L94.5938 179.167L94.5928 179.166L99.5312 170.833L100.821 171.598L105.759 163.265L104.469 162.5L109.405 154.166L109.406 154.167L110.696 154.932L115.634 146.598L114.344 145.833L119.281 137.5L120.571 138.265L125.509 129.932L124.219 129.167L124.218 129.166L129.156 120.833L130.446 121.598L135.384 113.265L134.094 112.5L139.03 104.166L139.031 104.167L140.321 104.932L141.5 102.941L142.679 104.932L143.969 104.167V104.166L148.906 112.5L147.616 113.265L152.554 121.598L153.843 120.833L158.781 129.166V129.167L157.491 129.932L162.429 138.265L163.719 137.5L168.655 145.833H168.656L167.366 146.598L172.304 154.932L173.594 154.167V154.166L178.531 162.5L177.241 163.265L182.179 171.598L183.468 170.833L188.406 179.166V179.167L187.116 179.932L192.054 188.265L193.344 187.5L198.28 195.833H198.281L196.991 196.598L201.929 204.932L203.219 204.167V204.166L208.156 212.5L206.866 213.265L211.804 221.598L213.093 220.833L218.031 229.166V229.167L216.741 229.932L221.679 238.265L222.969 237.5L227.905 245.833H227.906L226.616 246.598L231.554 254.932L232.844 254.167V254.166L237.781 262.5L236.491 263.265L241.429 271.598L242.718 270.833Z" stroke="#BABABA" stroke-width="3" stroke-dasharray="10 10"/>
<rect x="261.5" y="127.5" width="318" height="133" stroke="#BABABA" stroke-width="3"/>
</svg>
